<svg width="24" height="24" viewBox="0 0 24 24" fill="none" xmlns="http://www.w3.org/2000/svg">
<path d="M21.5216 12.0071L22.9913 8.99825C23.0788 8.81812 23.093 8.61106 23.031 8.42063C22.969 8.23021 22.8355 8.07127 22.6587 7.97725L19.7349 6.40707L19.1238 3.11202C19.0896 2.91473 18.9802 2.73839 18.8187 2.6201C18.6571 2.50181 18.4559 2.45079 18.2575 2.47776L14.9393 2.94959L12.5415 0.629127C12.3969 0.487403 12.2025 0.40802 12 0.40802C11.7976 0.40802 11.6032 0.487403 11.4586 0.629127L9.06077 2.94959L5.74251 2.47776C5.5441 2.45079 5.34296 2.50181 5.18139 2.6201C5.01982 2.73839 4.91043 2.91473 4.87621 3.11202L4.26515 6.40707L1.31043 7.95405C1.1336 8.04807 1.00013 8.20701 0.938094 8.39743C0.876062 8.58785 0.890308 8.79492 0.977835 8.97505L2.4784 12.0071L1.00877 15.016C0.921247 15.1961 0.907001 15.4032 0.969033 15.5936C1.03107 15.784 1.16454 15.943 1.34137 16.037L4.29609 17.584L4.87621 20.879C4.91043 21.0763 5.01982 21.2526 5.18139 21.3709C5.34296 21.4892 5.5441 21.5402 5.74251 21.5133L9.06077 21.0414L11.4586 23.3619C11.6032 23.5036 11.7976 23.583 12 23.583C12.2025 23.583 12.3969 23.5036 12.5415 23.3619L14.9393 21.0414L18.2575 21.5133C18.4559 21.5402 18.6571 21.4892 18.8187 21.3709C18.9802 21.2526 19.0896 21.0763 19.1238 20.879L19.7349 17.6072L22.6896 16.0602C22.8664 15.9662 22.9999 15.8072 23.062 15.6168C23.124 15.4264 23.1097 15.2193 23.0222 15.0392L21.5216 12.0071ZM19.9747 12.3475L21.2819 15.0237L18.652 16.416C18.549 16.4717 18.4599 16.5501 18.3916 16.6452C18.3232 16.7403 18.2774 16.8497 18.2575 16.9652L17.7393 19.8967L14.7923 19.479C14.6765 19.463 14.5585 19.4735 14.4473 19.5097C14.3361 19.5459 14.2346 19.6068 14.1503 19.6878L12 21.7608L9.85746 19.6878C9.71408 19.5496 9.52291 19.4721 9.32376 19.4713H9.21547L6.26849 19.889L5.75025 16.9574C5.73037 16.842 5.68453 16.7326 5.6162 16.6375C5.54786 16.5423 5.45881 16.464 5.35577 16.4083L2.71818 15.0237L4.03311 12.3475C4.08502 12.2415 4.11201 12.1251 4.11201 12.0071C4.11201 11.8891 4.08502 11.7727 4.03311 11.6668L2.71818 8.99052L5.34804 7.59824C5.45108 7.54255 5.54013 7.46418 5.60846 7.36904C5.6768 7.27391 5.72263 7.1645 5.74251 7.04907L6.26849 4.11755L9.21547 4.53524C9.33131 4.55122 9.44926 4.54073 9.56046 4.50455C9.67165 4.46838 9.7732 4.40747 9.85746 4.32639L12 2.25345L14.1426 4.32639C14.2268 4.40747 14.3284 4.46838 14.4396 4.50455C14.5508 4.54073 14.6687 4.55122 14.7846 4.53524L17.7316 4.11755L18.2498 7.04907C18.2697 7.1645 18.3155 7.27391 18.3838 7.36904C18.4522 7.46418 18.5412 7.54255 18.6443 7.59824L21.2819 8.99052L19.9669 11.6668C19.915 11.7727 19.888 11.8891 19.888 12.0071C19.888 12.1251 19.915 12.2415 19.9669 12.3475H19.9747ZM15.6509 9.46235L9.46299 15.6502C9.39108 15.7227 9.30553 15.7803 9.21128 15.8196C9.11702 15.8588 9.01592 15.879 8.91381 15.879C8.8117 15.879 8.7106 15.8588 8.61635 15.8196C8.52209 15.7803 8.43654 15.7227 8.36463 15.6502C8.29214 15.5783 8.23459 15.4928 8.19533 15.3985C8.15606 15.3043 8.13584 15.2032 8.13584 15.1011C8.13584 14.999 8.15606 14.8979 8.19533 14.8036C8.23459 14.7093 8.29214 14.6238 8.36463 14.5519L14.5525 8.364C14.6982 8.21835 14.8957 8.13652 15.1017 8.13652C15.3077 8.13652 15.5052 8.21835 15.6509 8.364C15.7965 8.50965 15.8784 8.70719 15.8784 8.91317C15.8784 9.11915 15.7965 9.3167 15.6509 9.46235ZM16.6409 14.3276C16.6409 14.6335 16.5502 14.9326 16.3802 15.187C16.2102 15.4414 15.9686 15.6397 15.686 15.7568C15.4033 15.8739 15.0923 15.9045 14.7922 15.8448C14.4921 15.7851 14.2164 15.6378 14.0001 15.4215C13.7837 15.2051 13.6364 14.9295 13.5767 14.6294C13.517 14.3293 13.5477 14.0183 13.6648 13.7356C13.7818 13.4529 13.9801 13.2113 14.2345 13.0413C14.4889 12.8713 14.788 12.7806 15.094 12.7806C15.5043 12.7806 15.8977 12.9436 16.1878 13.2337C16.478 13.5238 16.6409 13.9173 16.6409 14.3276ZM8.90608 11.2336C8.60011 11.2336 8.30102 11.1429 8.04662 10.9729C7.79222 10.8029 7.59394 10.5613 7.47686 10.2787C7.35977 9.99599 7.32914 9.68494 7.38883 9.38486C7.44852 9.08478 7.59585 8.80913 7.8122 8.59278C8.02855 8.37643 8.30419 8.2291 8.60428 8.16941C8.90436 8.10972 9.2154 8.14035 9.49808 8.25744C9.78075 8.37453 10.0224 8.57281 10.1923 8.82721C10.3623 9.0816 10.453 9.3807 10.453 9.68666C10.453 10.0969 10.2901 10.4904 9.99995 10.7805C9.70984 11.0706 9.31636 11.2336 8.90608 11.2336Z" fill="#E23684"/>
</svg>
