<svg width="20" height="32" viewBox="0 0 20 32" fill="none" xmlns="http://www.w3.org/2000/svg">
<path d="M19.3886 8.63225C18.4782 8.39621 17.7701 7.6881 17.5678 6.77766C17.534 6.64279 17.4329 6.54163 17.298 6.54163C17.1631 6.54163 17.062 6.64279 17.0282 6.77766C16.7922 7.6881 16.1178 8.39621 15.2074 8.63225C15.0725 8.66597 14.9713 8.76713 14.9713 8.90201C14.9713 9.03688 15.0725 9.13804 15.2074 9.17176C16.1178 9.37408 16.8259 10.1159 17.0282 10.9926C17.062 11.1275 17.1631 11.2287 17.298 11.2287C17.4329 11.2287 17.534 11.1275 17.5678 10.9926C17.7701 10.0822 18.5119 9.37408 19.3886 9.17176C19.5235 9.13804 19.6247 9.03688 19.6247 8.90201C19.5909 8.76713 19.4898 8.63225 19.3886 8.63225Z" fill="#7734C1"/>
<path d="M2.59642 11.0266C2.79874 10.1161 3.54057 9.40802 4.41728 9.2057C4.55216 9.17198 4.65332 9.07082 4.65332 8.93594C4.65332 8.80106 4.55216 8.6999 4.41728 8.66618C3.50685 8.43015 2.79874 7.75575 2.59642 6.8116C2.5627 6.67672 2.46154 6.57556 2.32666 6.57556C2.19178 6.57556 2.09062 6.67672 2.0569 6.8116C1.82086 7.72203 1.14647 8.43015 0.236038 8.66618C0.101159 8.6999 0 8.80106 0 8.93594C0 9.07082 0.101159 9.17198 0.236038 9.2057C1.14647 9.40802 1.85458 10.1499 2.0569 11.0266C2.09062 11.1614 2.19178 11.2626 2.32666 11.2626C2.42782 11.2289 2.5627 11.1614 2.59642 11.0266Z" fill="#7734C1"/>
<path d="M9.77855 28.4928C9.40763 28.4928 9.10416 28.7963 9.10416 29.1672V31.3253C9.10416 31.6962 9.40763 31.9996 9.77855 31.9996C10.1495 31.9996 10.4529 31.6962 10.4529 31.3253V29.1672C10.4529 28.7963 10.1495 28.4928 9.77855 28.4928Z" fill="#7734C1"/>
<path d="M13.5889 28.3922C13.454 28.055 13.0831 27.8527 12.7122 27.9876C12.375 28.1224 12.1727 28.4934 12.3075 28.8643L13.0494 30.9212C13.1505 31.1909 13.4203 31.3595 13.69 31.3595C13.7575 31.3595 13.8586 31.3595 13.9261 31.3258C14.2633 31.1909 14.4656 30.82 14.3307 30.4491L13.5889 28.3922Z" fill="#7734C1"/>
<path d="M6.84503 27.9876C6.50783 27.8527 6.1032 28.055 5.96832 28.3922L5.22648 30.4491C5.0916 30.7863 5.29392 31.1909 5.63112 31.3258C5.69856 31.3595 5.79972 31.3595 5.86716 31.3595C6.13692 31.3595 6.40667 31.1909 6.50783 30.9212L7.24967 28.8643C7.38454 28.4934 7.18223 28.1224 6.84503 27.9876Z" fill="#7734C1"/>
<path d="M13.1169 10.6217C12.9821 10.4868 12.8135 10.3857 12.6111 10.3857H12.1054C12.3077 10.0148 12.4426 9.5764 12.4426 9.10432C12.4426 8.36249 12.1391 7.72181 11.667 7.21602C11.7007 7.1823 11.7344 7.1823 11.7682 7.1823C14.9041 5.36143 16.8598 3.13593 18.04 1.01159C18.3098 0.573235 17.9726 0 17.4668 0C17.2308 0 16.9947 0.134879 16.8598 0.337197C15.7471 2.29294 13.9599 4.31612 11.0938 6.00211C10.2845 6.47418 9.30662 6.47418 8.53107 6.00211C5.66489 4.31612 3.84403 2.25922 2.765 0.337197C2.63012 0.134879 2.4278 0 2.19176 0C1.68597 0 1.34877 0.573235 1.61853 1.01159C2.83243 3.13593 4.75446 5.36143 7.89039 7.1823C7.92411 7.21602 7.95783 7.21602 7.99155 7.21602C7.51947 7.68809 7.216 8.36249 7.216 9.10432C7.216 9.5764 7.35088 10.0148 7.55319 10.3857H7.0474C6.84508 10.3857 6.67648 10.4531 6.5416 10.6217L2.49524 15.1064C2.39408 15.2413 2.32664 15.3762 2.32664 15.5448V21.412C2.32664 21.5806 2.39408 21.7492 2.49524 21.8504L6.44044 26.3014C6.57532 26.47 6.74392 26.5374 6.94624 26.5374H12.5774C12.7797 26.5374 12.9483 26.47 13.0832 26.3014L17.0284 21.8504C17.1296 21.7155 17.197 21.5806 17.197 21.412V15.5448C17.197 15.3762 17.1296 15.2076 17.0284 15.1064L13.1169 10.6217ZM12.7797 12.3414L15.3762 15.275L13.353 16.0506L11.8693 14.3646L12.7797 12.3414ZM9.7787 7.82297C10.4868 7.82297 11.06 8.39621 11.06 9.10432C11.06 9.81243 10.4868 10.3857 9.7787 10.3857C9.07058 10.3857 8.49735 9.81243 8.49735 9.10432C8.49735 8.39621 9.07058 7.82297 9.7787 7.82297ZM11.5321 11.7682L10.6217 13.7914H8.90198L7.99155 11.7682H11.5321ZM8.80082 15.1401H10.7903L12.51 17.0959V19.8946L10.7903 21.8504H8.80082L7.08112 19.8946V17.0959L8.80082 15.1401ZM6.77764 12.3414L7.68807 14.3646L6.20441 16.0506L4.18122 15.275L6.77764 12.3414ZM3.70915 16.5227L5.73233 17.2982V19.6586L3.70915 20.4341V16.5227ZM6.77764 24.6491L4.18122 21.7155L6.20441 20.9399L7.68807 22.6259L6.77764 24.6491ZM8.02527 25.2223L8.9357 23.1992H10.6554L11.5658 25.2223H8.02527ZM12.7797 24.6491L11.8693 22.6259L13.353 20.9399L15.3762 21.7155L12.7797 24.6491ZM15.882 20.4341L13.8588 19.6586V17.2982L15.882 16.5227V20.4341Z" fill="#7734C1"/>
</svg>
