<svg width="34" height="34" viewBox="0 0 34 34" fill="none" xmlns="http://www.w3.org/2000/svg">
<path d="M17 1C13.8355 1 10.7421 1.93838 8.11088 3.69649C5.4797 5.45459 3.42894 7.95345 2.21793 10.8771C1.00693 13.8007 0.690079 17.0177 1.30744 20.1214C1.92481 23.2251 3.44866 26.0761 5.6863 28.3137C7.92394 30.5513 10.7749 32.0752 13.8786 32.6926C16.9823 33.3099 20.1993 32.9931 23.1229 31.7821C26.0466 30.5711 28.5454 28.5203 30.3035 25.8891C32.0616 23.2579 33 20.1645 33 17C32.9952 12.758 31.308 8.69113 28.3084 5.69159C25.3089 2.69205 21.242 1.0048 17 1ZM17 31.9333C14.0465 31.9333 11.1593 31.0575 8.70349 29.4166C6.24772 27.7757 4.33367 25.4434 3.20341 22.7147C2.07314 19.986 1.77741 16.9834 2.35361 14.0866C2.92982 11.1899 4.35208 8.529 6.44054 6.44054C8.52901 4.35207 11.1899 2.92981 14.0867 2.35361C16.9834 1.7774 19.986 2.07313 22.7147 3.2034C25.4435 4.33367 27.7757 6.24771 29.4166 8.70348C31.0575 11.1593 31.9333 14.0465 31.9333 17C31.9288 20.9592 30.354 24.7549 27.5545 27.5545C24.7549 30.354 20.9592 31.9288 17 31.9333Z" fill="#7734C1" stroke="#7734C1" stroke-width="0.4"/>
<path d="M8.12587 7.78445L7.38667 7.01538C7.06293 7.32738 6.75147 7.65538 6.46133 7.99618L7.272 8.68951C7.54027 8.37645 7.82667 8.07191 8.12587 7.78445Z" fill="#7734C1" stroke="#7734C1" stroke-width="0.4"/>
<path d="M3.17709 15.8912L4.24056 15.9755C4.42315 13.6873 5.21987 11.4908 6.54669 9.6176L5.67789 9C4.2395 11.0302 3.37554 13.411 3.17709 15.8912Z" fill="#7734C1" stroke="#7734C1" stroke-width="0.4"/>
<path d="M24.4666 6.50872C24.4671 5.9396 24.2574 5.39035 23.8778 4.96639C23.4981 4.54244 22.9752 4.27365 22.4095 4.21163C21.8437 4.14961 21.275 4.29872 20.8125 4.63035C20.35 4.96197 20.0263 5.45274 19.9035 6.00845C19.8138 6.41378 19.7435 6.82285 19.6666 7.23138C18.798 6.99273 17.9008 6.87341 17 6.87672V4.19992H15.9333V10.5999C15.9335 11.0169 15.8357 11.4281 15.648 11.8004C15.4602 12.1726 15.1876 12.4957 14.8523 12.7434C14.5196 12.9977 14.254 13.3293 14.0784 13.7093C13.9027 14.0894 13.8224 14.5066 13.8443 14.9247L14.3333 27.1524C14.3384 27.2884 14.3158 27.424 14.267 27.5509C14.2181 27.6779 14.144 27.7936 14.0491 27.8911C13.8548 28.0824 13.5931 28.1896 13.3205 28.1896C13.0479 28.1896 12.7862 28.0824 12.592 27.8911C12.497 27.7933 12.4229 27.6773 12.374 27.5501C12.3252 27.4229 12.3026 27.287 12.3077 27.1508L12.6891 14.9199C12.7106 14.5022 12.63 14.0854 12.4543 13.7058C12.2786 13.3262 12.013 12.9951 11.6805 12.7412C11.3457 12.4935 11.0736 12.1708 10.8859 11.7989C10.6983 11.4271 10.6003 11.0164 10.6 10.5999V4.19992H9.53332V10.1658C8.55036 11.2343 7.80934 12.5023 7.36078 13.8831C6.91221 15.264 6.76664 16.7253 6.93398 18.1675C7.10132 19.6098 7.57765 20.999 8.3305 22.2404C9.08334 23.4819 10.095 24.5464 11.2965 25.3615L11.2432 27.1162C11.2324 27.396 11.2783 27.6751 11.378 27.9368C11.4777 28.1984 11.6292 28.4373 11.8234 28.6389C12.0177 28.8406 12.2506 29.001 12.5083 29.1105C12.7661 29.22 13.0432 29.2763 13.3232 29.2761C13.6033 29.2759 13.8804 29.2192 14.1379 29.1093C14.3955 28.9994 14.6282 28.8386 14.8221 28.6366C15.016 28.4346 15.1672 28.1956 15.2665 27.9338C15.3658 27.6719 15.4112 27.3928 15.4 27.113L15.3957 27.0015C17.0592 27.275 18.7648 27.1212 20.3525 26.5546L20.3168 27.0452C20.2899 27.3278 20.321 27.6129 20.4084 27.8829C20.4958 28.1529 20.6375 28.4022 20.8248 28.6154C21.0122 28.8287 21.2412 29.0013 21.4977 29.1227C21.7543 29.2441 22.0329 29.3117 22.3166 29.3214C22.6003 29.331 22.8829 29.2825 23.1471 29.1789C23.4113 29.0752 23.6515 28.9185 23.8529 28.7186C24.0543 28.5186 24.2127 28.2795 24.3182 28.016C24.4238 27.7526 24.4743 27.4703 24.4666 27.1866V23.8319C26.1814 21.9691 27.1333 19.5297 27.1333 16.9978C27.1333 14.4659 26.1814 12.0265 24.4666 10.1636V6.50872ZM11.3365 24.0692C9.50934 22.6135 8.31736 20.5064 8.01095 18.1904C7.70455 15.8744 8.30755 13.5298 9.69332 11.649C9.91418 12.4327 10.3908 13.12 11.0475 13.6015C11.2403 13.7531 11.3934 13.9493 11.4936 14.1732C11.5939 14.3971 11.6383 14.642 11.6229 14.8868L11.3365 24.0692ZM20.4373 25.377C18.8325 26.0585 17.0595 26.2403 15.3499 25.8986L14.9099 14.8852C14.8947 14.6407 14.9391 14.3962 15.0393 14.1726C15.1394 13.949 15.2923 13.753 15.4848 13.6015C15.7768 13.3865 16.0357 13.1299 16.2533 12.8399C16.7367 12.193 16.9985 11.4075 17 10.5999V7.94232C17.8433 7.93854 18.6828 8.05582 19.4928 8.29058C19.2572 9.85814 19.1371 11.4409 19.1333 13.026V18.5999C19.1333 18.7414 19.1895 18.877 19.2895 18.977C19.3895 19.0771 19.5252 19.1332 19.6666 19.1332H20.8933L20.4373 25.377ZM23.4 27.1866C23.4 27.4553 23.2932 27.7131 23.1032 27.9031C22.9131 28.0932 22.6554 28.1999 22.3866 28.1999C22.2482 28.1997 22.1113 28.1711 21.9844 28.1159C21.8574 28.0608 21.7431 27.9802 21.6485 27.8791C21.554 27.7781 21.4811 27.6587 21.4344 27.5284C21.3877 27.3981 21.3682 27.2596 21.377 27.1215L21.9984 18.6415C22.0037 18.5683 21.9939 18.4947 21.9695 18.4254C21.9451 18.3562 21.9067 18.2927 21.8566 18.239C21.8066 18.1852 21.7459 18.1424 21.6786 18.1132C21.6112 18.084 21.5385 18.0691 21.465 18.0692H20.2V13.026C20.2009 10.7434 20.4513 8.46765 20.9467 6.23938C21.0143 5.94206 21.1889 5.67999 21.4372 5.50308C21.6856 5.32618 21.9903 5.24681 22.2934 5.28008C22.5965 5.31336 22.8768 5.45696 23.0808 5.68352C23.2849 5.91009 23.3985 6.2038 23.4 6.50872V27.1866ZM26.0666 16.9999C26.0677 18.8319 25.5095 20.6206 24.4666 22.1268V11.873C25.5095 13.3792 26.0677 15.1679 26.0666 16.9999Z" fill="#7734C1" stroke="#7734C1" stroke-width="0.4"/>
<path d="M12.7333 4.19995H11.6667V10.0666H12.7333V4.19995Z" fill="#7734C1" stroke="#7734C1" stroke-width="0.4"/>
<path d="M14.8667 4.19995H13.8V10.0666H14.8667V4.19995Z" fill="#7734C1" stroke="#7734C1" stroke-width="0.4"/>
</svg>
