<svg width="31" height="32" viewBox="0 0 31 32" fill="none" xmlns="http://www.w3.org/2000/svg">
<path fill-rule="evenodd" clip-rule="evenodd" d="M0 10.8089V13.4724C0 14.5497 0.377244 15.5438 1.00551 16.3285L1.03076 27.9996C1.03076 30.2087 2.87787 32 5.15591 32H25.7639C28.0416 32 29.8891 30.2087 29.8891 27.9996L29.9143 16.3285C30.5429 15.5435 30.9198 14.5497 30.9198 13.4724V10.6172C30.9198 10.1657 30.8149 9.82009 30.5888 9.43076L25.5339 0.734578C25.1972 0.155378 24.8551 0 24.1877 0H6.73138C6.06471 0 5.72267 0.155378 5.3856 0.734578L0.353778 9.39058C0.0312888 9.9456 0 10.1572 0 10.8089ZM3.00053 17.7728C4.86542 18.4654 6.97316 17.8667 8.20978 16.2706C10.0423 18.6354 13.6274 18.6354 15.4599 16.2706C17.2921 18.6354 20.8772 18.6354 22.71 16.2706C23.9467 17.8667 26.0544 18.4654 27.9193 17.7728C27.9147 28.0996 27.9161 22.5813 27.9168 27.9996C27.9168 29.1036 26.9028 29.9996 25.7636 30H23.5484V20.4494C23.5484 19.8101 23.0254 19.2875 22.3858 19.2875H17.3259C16.6866 19.2875 16.1639 19.8101 16.1639 20.4494V29.9996L5.15591 30C4.01636 29.9996 3.00231 29.1036 3.00231 27.9996C3.00373 22.5813 3.0048 28.0999 3.00053 17.7728ZM1.92 13.4724L2.03982 10L6.69902 2H24.2212L28.9838 10.3751L29.0002 13.4727C29.0002 16.998 23.6704 16.998 23.6704 13.4727L23.5808 10.3204L22.2048 4.672C21.8012 3.01547 20.1188 3.8752 20.3179 4.672L21.7241 10.2827L21.7497 13.4724C21.7497 16.9746 16.4199 16.9746 16.4199 13.4724L16.4028 4.60373C16.4011 3.35573 14.5177 3.35573 14.5163 4.60373L14.4999 13.4724C14.4999 16.9746 9.17013 16.9746 9.17013 13.4724L9.14773 10.2688L10.5536 4.65813C10.7534 3.86169 9.07058 3.00053 8.66738 4.65813L7.29102 10.3065L7.24978 13.472C7.24978 16.9973 1.92 16.9973 1.92 13.4724Z" fill="#7734C1"/>
<path fill-rule="evenodd" clip-rule="evenodd" d="M7.51252 20.0394H11.2626C11.7781 20.0394 12.2002 20.4615 12.2002 20.9774V24.7267C12.2002 25.2426 11.7781 25.6647 11.2626 25.6647H7.51252C6.99661 25.6647 6.57492 25.2426 6.57492 24.7267V20.9774C6.57528 20.4611 6.99661 20.0394 7.51252 20.0394Z" fill="#7734C1"/>
</svg>
