<svg width="32" height="32" viewBox="0 0 32 32" fill="none" xmlns="http://www.w3.org/2000/svg">
<path fill-rule="evenodd" clip-rule="evenodd" d="M15.9955 0C7.17251 0 0 7.17253 0 15.9955C0 24.8185 7.17251 32 15.9955 32C24.8185 32 32 24.8185 32 15.9955C32 7.17253 24.8185 0 15.9955 0ZM15.9955 2.28572C23.5832 2.28572 29.712 8.40781 29.712 15.9955C29.712 23.5833 23.5832 29.7121 15.9955 29.7121C8.4078 29.7121 2.27678 23.5833 2.27678 15.9955C2.27678 8.40781 8.4078 2.28572 15.9955 2.28572ZM9.19865 13.9353C8.09168 13.9638 7.19195 14.8821 7.19195 15.9955C7.19195 17.1266 8.12117 18.0603 9.25223 18.0603C10.3833 18.0603 11.317 17.1266 11.317 15.9955C11.317 14.8645 10.3833 13.9353 9.25223 13.9353C9.23456 13.9353 9.21625 13.9348 9.19865 13.9353ZM15.9397 13.9353C14.8328 13.9638 13.933 14.8821 13.933 15.9955C13.933 17.1266 14.8622 18.0603 15.9933 18.0603C17.1244 18.0603 18.058 17.1266 18.058 15.9955C18.058 14.8645 17.1244 13.9353 15.9933 13.9353C15.9756 13.9353 15.9573 13.9348 15.9397 13.9353ZM22.6808 13.9353C21.5738 13.9638 20.6741 14.8821 20.6741 15.9955C20.6741 17.1266 21.6033 18.0603 22.7344 18.0603C23.8654 18.0603 24.7991 17.1266 24.7991 15.9955C24.7991 14.8645 23.8654 13.9353 22.7344 13.9353C22.7167 13.9353 22.6984 13.9348 22.6808 13.9353Z" fill="#7734C1"/>
</svg>
