<svg width="32" height="34" viewBox="0 0 32 34" fill="none" xmlns="http://www.w3.org/2000/svg">
<path d="M27 13H18.635C19.47 12.265 20 11.195 20 10C20 7.97 18.48 6.295 16.525 6.04C16.755 3.775 18.675 2 21 2C21.275 2 21.5 1.775 21.5 1.5C21.5 1.225 21.275 1 21 1C18.125 1 15.765 3.215 15.525 6.03C13.54 6.27 12 7.955 12 10C12 11.195 12.53 12.265 13.365 13H5C3.345 13 2 14.345 2 16V18.5C2 18.775 2.225 19 2.5 19H29.5C29.775 19 30 18.775 30 18.5V16C30 14.345 28.655 13 27 13ZM13 10C13 8.345 14.345 7 16 7C17.655 7 19 8.345 19 10C19 11.655 17.655 13 16 13C14.345 13 13 11.655 13 10ZM29 18H3V16C3 14.895 3.895 14 5 14H27C28.105 14 29 14.895 29 16V18Z" fill="#7734C1" stroke="#7734C1" stroke-width="0.6"/>
<path d="M29.5 20H2.5C2.225 20 2 20.225 2 20.5V25.5C2 25.775 2.225 26 2.5 26H29.5C29.775 26 30 25.775 30 25.5V20.5C30 20.225 29.775 20 29.5 20ZM29 25H3V21H29V25Z" fill="#7734C1" stroke="#7734C1" stroke-width="0.6"/>
<path d="M7.5 32H6.5C6.225 32 6 32.225 6 32.5C6 32.775 6.225 33 6.5 33H7.5C7.775 33 8 32.775 8 32.5C8 32.225 7.775 32 7.5 32Z" fill="#7734C1" stroke="#7734C1" stroke-width="0.6"/>
<path d="M29.5 27H2.5C2.225 27 2 27.225 2 27.5V31C2 32.105 2.895 33 4 33H4.5C4.775 33 5 32.775 5 32.5C5 32.225 4.775 32 4.5 32H4C3.45 32 3 31.55 3 31V28H29V31C29 31.55 28.55 32 28 32H9.5C9.225 32 9 32.225 9 32.5C9 32.775 9.225 33 9.5 33H28C29.105 33 30 32.105 30 31V27.5C30 27.225 29.775 27 29.5 27Z" fill="#7734C1" stroke="#7734C1" stroke-width="0.6"/>
</svg>
