<svg width="32" height="33" viewBox="0 0 32 33" fill="none" xmlns="http://www.w3.org/2000/svg">
<path fill-rule="evenodd" clip-rule="evenodd" d="M6.11169 13.1612C5.9124 13.2014 5.70968 13.222 5.50639 13.2229C2.95795 13.2229 0.879883 10.3699 0.879883 6.86144C0.879883 3.35301 2.95795 0.5 5.50639 0.5C7.24904 0.5 8.76422 1.8494 9.55458 3.77711C10.3449 1.8494 11.8601 0.5 13.6028 0.5C16.1551 0.5 18.2254 3.35301 18.2254 6.86144C18.2254 10.3699 16.1512 13.2229 13.5989 13.2229C13.3956 13.2218 13.1929 13.2012 12.9936 13.1612V17.1824C12.9936 18.5202 12.9049 30.3294 9.87844 32.3998C9.78143 32.4647 9.66744 32.4995 9.55072 32.5C9.43522 32.4995 9.32249 32.4646 9.22687 32.3998C6.5435 30.5684 6.1541 22.8923 6.11169 19.6769V17.1824V13.1612ZM7.26832 18.3506L7.86591 17.8031L7.86205 17.7954C7.73024 17.5493 7.65463 17.277 7.64066 16.9981C7.62669 16.7192 7.67471 16.4407 7.78126 16.1827C7.88781 15.9246 8.05025 15.6933 8.25688 15.5055C8.46351 15.3177 8.7092 15.1781 8.97627 15.0966V11.0561C8.55174 11.7477 7.96563 12.3259 7.26832 12.741V18.3506ZM17.0727 6.86144C17.0727 3.99301 15.5305 1.65663 13.6028 1.65663C11.6905 1.65663 10.1329 3.99301 10.1329 6.86144C10.1329 9.72988 11.6751 12.0663 13.6028 12.0663C15.5305 12.0663 17.0727 9.72988 17.0727 6.86144ZM11.8408 12.741C11.1444 12.3248 10.5585 11.7469 10.1329 11.0561L10.1136 15.0966C10.5344 15.2483 10.8893 15.5415 11.1176 15.9261C11.3459 16.3107 11.4334 16.7627 11.3651 17.2047C11.2967 17.6467 11.0768 18.0512 10.743 18.3489C10.4092 18.6466 9.98222 18.8189 9.5353 18.8364C9.23145 18.834 8.93263 18.7586 8.66398 18.6166L7.25675 19.9198C7.33771 24.2147 7.98542 29.4928 9.52759 31.1545C11.224 29.2306 11.8408 21.9092 11.8408 17.1824V12.741ZM9.98297 16.2868C9.85617 16.2021 9.70709 16.1569 9.55458 16.1569C9.35008 16.1569 9.15395 16.2381 9.00934 16.3827C8.86473 16.5273 8.7835 16.7234 8.7835 16.9279C8.7835 17.0805 8.82872 17.2295 8.91345 17.3563C8.99817 17.4831 9.1186 17.582 9.2595 17.6403C9.4004 17.6987 9.55544 17.714 9.70501 17.6842C9.85459 17.6545 9.99198 17.581 10.0998 17.4732C10.2077 17.3654 10.2811 17.228 10.3108 17.0784C10.3406 16.9288 10.3253 16.7738 10.267 16.6329C10.2086 16.492 10.1098 16.3715 9.98297 16.2868ZM8.97627 6.86144C8.97627 3.99301 7.4341 1.65663 5.50639 1.65663C3.5941 1.65663 2.03651 3.99301 2.03651 6.86144C2.03651 9.72988 3.57868 12.0663 5.50639 12.0663C7.4341 12.0663 8.97627 9.72988 8.97627 6.86144ZM16.1088 6.86138C16.1088 9.16693 15.0061 10.9713 13.6028 10.9713C12.1994 10.9713 11.0967 9.17464 11.0967 6.86138C11.0967 4.54813 12.1994 2.75151 13.6028 2.75151C15.0061 2.75151 16.1088 4.55584 16.1088 6.86138ZM14.9522 6.86138C14.9522 5.17271 14.2389 3.90813 13.6028 3.90813C12.9666 3.90813 12.2534 5.17271 12.2534 6.86138C12.2534 8.55006 12.9666 9.81464 13.6028 9.81464C14.2389 9.81464 14.9522 8.55006 14.9522 6.86138ZM5.47551 10.9713C6.87889 10.9713 7.97768 9.16693 7.97768 6.86138C7.97768 4.55584 6.87889 2.75151 5.47551 2.75151C4.07214 2.75151 2.96949 4.54813 2.96949 6.86138C2.96949 9.17464 4.06829 10.9713 5.47551 10.9713ZM5.47551 3.90813C6.11166 3.90813 6.82106 5.17271 6.82106 6.86138C6.82106 8.55006 6.11166 9.81464 5.47551 9.81464C4.83937 9.81464 4.12612 8.55006 4.12612 6.86138C4.12612 5.17271 4.83937 3.90813 5.47551 3.90813ZM19.4784 29.994V2.95976C19.4784 2.63674 19.5421 2.31688 19.6657 2.01845C19.7893 1.72002 19.9705 1.44886 20.1989 1.22045C20.4273 0.99204 20.6985 0.810855 20.9969 0.68724C21.2953 0.563626 21.6152 0.500003 21.9382 0.500003H28.716C29.1095 0.499294 29.4884 0.64901 29.775 0.918502C30.0617 1.18799 30.2346 1.55688 30.2582 1.94964C30.2693 2.15519 30.238 2.36083 30.1664 2.55381C30.0948 2.7468 29.9843 2.92302 29.8418 3.07157C29.6928 3.2296 29.5137 3.35635 29.3151 3.44439C29.1165 3.53243 28.9024 3.58001 28.6852 3.58434H24.876C24.8253 3.58405 24.775 3.59377 24.728 3.61296C24.681 3.63214 24.6383 3.66041 24.6023 3.69615C24.5355 3.76314 24.4958 3.85233 24.4905 3.94675C24.4885 3.99438 24.4965 4.0419 24.5137 4.08635C24.5309 4.13079 24.5572 4.1712 24.5907 4.20506C24.6358 4.25171 24.6897 4.289 24.7492 4.3148C24.8088 4.3406 24.8728 4.3544 24.9377 4.35542H28.716C29.1095 4.35471 29.4884 4.50443 29.775 4.77392C30.0617 5.04342 30.2346 5.4123 30.2582 5.80506C30.2693 6.01061 30.238 6.21625 30.1664 6.40923C30.0948 6.60222 29.9843 6.77844 29.8418 6.92699C29.6928 7.08502 29.5137 7.21177 29.3151 7.29981C29.1165 7.38785 28.9024 7.43543 28.6852 7.43976H24.876C24.8253 7.43947 24.775 7.44919 24.728 7.46838C24.681 7.48757 24.6383 7.51584 24.6023 7.55157C24.5355 7.61856 24.4958 7.70775 24.4905 7.80217C24.4885 7.8498 24.4965 7.89732 24.5137 7.94177C24.5309 7.98621 24.5572 8.02662 24.5907 8.06048C24.6358 8.10713 24.6897 8.14442 24.7492 8.17022C24.8088 8.19602 24.8728 8.20983 24.9377 8.21084H28.716C29.1095 8.21014 29.4884 8.35985 29.775 8.62934C30.0617 8.89884 30.2346 9.26772 30.2582 9.66048C30.2693 9.86603 30.238 10.0717 30.1664 10.2647C30.0948 10.4576 29.9843 10.6339 29.8418 10.7824C29.6928 10.9404 29.5137 11.0672 29.3151 11.1552C29.1165 11.2433 28.9024 11.2909 28.6852 11.2952H24.876C24.8253 11.2949 24.775 11.3046 24.728 11.3238C24.681 11.343 24.6383 11.3713 24.6023 11.407C24.5355 11.474 24.4958 11.5632 24.4905 11.6576C24.4885 11.7052 24.4965 11.7527 24.5137 11.7972C24.5309 11.8416 24.5572 11.882 24.5907 11.9159C24.6358 11.9626 24.6897 11.9998 24.7492 12.0256C24.8088 12.0514 24.8728 12.0652 24.9377 12.0663H28.716C29.1095 12.0656 29.4884 12.2153 29.775 12.4848C30.0617 12.7543 30.2346 13.1231 30.2582 13.5159C30.2693 13.7215 30.238 13.9271 30.1664 14.1201C30.0948 14.3131 29.9843 14.4893 29.8418 14.6378C29.6928 14.7959 29.5137 14.9226 29.3151 15.0107C29.1165 15.0987 28.9024 15.1463 28.6852 15.1506H24.876C24.8253 15.1503 24.775 15.16 24.728 15.1792C24.681 15.1984 24.6383 15.2267 24.6023 15.2624C24.5355 15.3294 24.4958 15.4186 24.4905 15.513C24.4885 15.5606 24.4965 15.6082 24.5137 15.6526C24.5309 15.6971 24.5572 15.7375 24.5907 15.7713C24.6358 15.818 24.6897 15.8553 24.7492 15.8811C24.8088 15.9069 24.8728 15.9207 24.9377 15.9217H28.716C29.1095 15.921 29.4884 16.0707 29.775 16.3402C30.0617 16.6097 30.2346 16.9786 30.2582 17.3713C30.2693 17.5769 30.238 17.7825 30.1664 17.9755C30.0948 18.1685 29.9843 18.3447 29.8418 18.4933C29.6928 18.6513 29.5137 18.778 29.3151 18.8661C29.1165 18.9541 28.9024 19.0017 28.6852 19.006H24.876C24.7738 19.006 24.6757 19.0466 24.6034 19.1189C24.5311 19.1912 24.4905 19.2893 24.4905 19.3916V29.994C24.4905 30.6586 24.2265 31.296 23.7565 31.766C23.2865 32.236 22.6491 32.5 21.9845 32.5C21.3198 32.5 20.6824 32.236 20.2124 31.766C19.7425 31.296 19.4784 30.6586 19.4784 29.994ZM29.1131 2.01904C29.1089 1.92514 29.0705 1.83602 29.0052 1.76844C28.9313 1.69798 28.8335 1.65805 28.7314 1.65663H21.9382C21.5926 1.65663 21.2611 1.79392 21.0167 2.03831C20.7724 2.28269 20.6351 2.61415 20.6351 2.95976V29.994C20.6351 30.3519 20.7772 30.6951 21.0303 30.9481C21.2833 31.2012 21.6266 31.3434 21.9845 31.3434C22.3423 31.3434 22.6856 31.2012 22.9386 30.9481C23.1917 30.6951 23.3339 30.3519 23.3339 29.994V19.3916C23.3339 18.9826 23.4963 18.5903 23.7855 18.3011C24.0748 18.0119 24.467 17.8494 24.876 17.8494H28.6698C28.7341 17.8483 28.7975 17.8344 28.8564 17.8086C28.9153 17.7828 28.9685 17.7456 29.0129 17.699C29.0464 17.6652 29.0727 17.6248 29.0899 17.5803C29.1072 17.5359 29.1151 17.4884 29.1131 17.4407C29.1089 17.3468 29.0705 17.2577 29.0052 17.1901C28.9313 17.1197 28.8335 17.0797 28.7314 17.0783H24.9377C24.7154 17.0772 24.4957 17.0312 24.2916 16.9431C24.0876 16.855 23.9034 16.7266 23.7502 16.5655C23.6077 16.417 23.4972 16.2408 23.4256 16.0478C23.354 15.8548 23.3228 15.6492 23.3339 15.4436C23.3569 15.0668 23.5174 14.7115 23.7849 14.4451C23.9283 14.3019 24.0984 14.1884 24.2856 14.111C24.4728 14.0336 24.6734 13.9938 24.876 13.994H28.6698C28.7341 13.9929 28.7975 13.979 28.8564 13.9532C28.9153 13.9274 28.9685 13.8901 29.0129 13.8436C29.0464 13.8098 29.0727 13.7693 29.0899 13.7249C29.1072 13.6805 29.1151 13.6329 29.1131 13.5853C29.1089 13.4914 29.0705 13.4023 29.0052 13.3347C28.9313 13.2642 28.8335 13.2243 28.7314 13.2229H24.9377C24.7154 13.2218 24.4957 13.1758 24.2916 13.0877C24.0876 12.9996 23.9034 12.8712 23.7502 12.7101C23.6077 12.5616 23.4972 12.3854 23.4256 12.1924C23.354 11.9994 23.3228 11.7937 23.3339 11.5882C23.3569 11.2113 23.5174 10.8561 23.7849 10.5896C23.9283 10.4465 24.0984 10.3329 24.2856 10.2556C24.4728 10.1782 24.6734 10.1384 24.876 10.1386H28.6698C28.7341 10.1375 28.7975 10.1236 28.8564 10.0978C28.9153 10.072 28.9685 10.0347 29.0129 9.98819C29.0464 9.95433 29.0727 9.91392 29.0899 9.86948C29.1072 9.82503 29.1151 9.77751 29.1131 9.72988C29.1089 9.63598 29.0705 9.54686 29.0052 9.47928C28.9313 9.40883 28.8335 9.36889 28.7314 9.36747H24.9377C24.7154 9.36638 24.4957 9.3204 24.2916 9.23228C24.0876 9.14417 23.9034 9.01574 23.7502 8.8547C23.6077 8.70615 23.4972 8.52993 23.4256 8.33694C23.354 8.14396 23.3228 7.93832 23.3339 7.73277C23.3569 7.35593 23.5174 7.00063 23.7849 6.73422C23.9283 6.59105 24.0984 6.47753 24.2856 6.40013C24.4728 6.32273 24.6734 6.28298 24.876 6.28313H28.6698C28.7341 6.28203 28.7975 6.26817 28.8564 6.24236C28.9153 6.21655 28.9685 6.1793 29.0129 6.13277C29.0464 6.09891 29.0727 6.0585 29.0899 6.01406C29.1072 5.96961 29.1151 5.92209 29.1131 5.87446C29.1089 5.78056 29.0705 5.69144 29.0052 5.62386C28.9313 5.55341 28.8335 5.51347 28.7314 5.51205H24.9377C24.7154 5.51096 24.4957 5.46498 24.2916 5.37686C24.0876 5.28875 23.9034 5.16032 23.7502 4.99928C23.6077 4.85073 23.4972 4.67451 23.4256 4.48152C23.354 4.28854 23.3228 4.0829 23.3339 3.87735C23.3569 3.50051 23.5174 3.14521 23.7849 2.8788C23.9283 2.73563 24.0984 2.62211 24.2856 2.54471C24.4728 2.46731 24.6734 2.42755 24.876 2.42771H28.6698C28.7341 2.42661 28.7975 2.41275 28.8564 2.38694C28.9153 2.36113 28.9685 2.32388 29.0129 2.27735C29.0464 2.24349 29.0727 2.20308 29.0899 2.15864C29.1072 2.11419 29.1151 2.06667 29.1131 2.01904Z" fill="#7734C1"/>
</svg>
