<svg width="32" height="32" viewBox="0 0 32 32" fill="none" xmlns="http://www.w3.org/2000/svg">
<path fill-rule="evenodd" clip-rule="evenodd" d="M25.365 15.25H31.25C31.664 15.25 32 15.5855 32 16C32 16.4145 31.664 16.75 31.25 16.75H25.365V20.9275H28.5845C28.9985 20.9275 29.3345 21.2635 29.3345 21.6775C29.3345 22.0915 28.9985 22.4275 28.5845 22.4275H25.365V23.0305C25.365 24.3175 24.3175 25.365 23.0305 25.365H22.4275V28.5845C22.4275 28.9985 22.0915 29.3345 21.6775 29.3345C21.2635 29.3345 20.9275 28.9985 20.9275 28.5845V25.365H16.75V31.25C16.75 31.664 16.4145 32 16 32C15.5855 32 15.25 31.664 15.25 31.25V25.365H11.0725V28.5845C11.0725 28.9985 10.737 29.3345 10.3225 29.3345C9.908 29.3345 9.5725 28.9985 9.5725 28.5845V25.365H8.969C7.6815 25.365 6.6345 24.3175 6.6345 23.0305V22.4275H3.4155C3.001 22.4275 2.6655 22.0915 2.6655 21.6775C2.6655 21.2635 3.001 20.9275 3.4155 20.9275H6.635V16.75H0.75C0.3355 16.75 0 16.4145 0 16C0 15.5855 0.3355 15.25 0.75 15.25H6.6345V11.0725H3.4155C3.001 11.0725 2.6655 10.737 2.6655 10.3225C2.6655 9.908 3.001 9.5725 3.4155 9.5725H6.6345V8.969C6.6345 7.6815 7.6815 6.6345 8.969 6.6345H9.5725V3.4155C9.5725 3.001 9.908 2.6655 10.3225 2.6655C10.737 2.6655 11.0725 3.001 11.0725 3.4155V6.635H15.25V0.75C15.25 0.3355 15.5855 0 16 0C16.4145 0 16.75 0.3355 16.75 0.75V6.6345H20.9275V3.4155C20.9275 3.001 21.2635 2.6655 21.6775 2.6655C22.0915 2.6655 22.4275 3.001 22.4275 3.4155V6.6345H23.0305C24.3175 6.6345 25.365 7.6815 25.365 8.969V9.5725H28.5845C28.9985 9.5725 29.3345 9.908 29.3345 10.3225C29.3345 10.737 28.9985 11.0725 28.5845 11.0725H25.365V15.25ZM23.0305 23.8655C23.4905 23.8655 23.865 23.491 23.865 23.031V8.969C23.865 8.509 23.4905 8.1345 23.0305 8.1345H8.969C8.509 8.1345 8.1345 8.509 8.1345 8.969V23.031C8.1345 23.491 8.509 23.8655 8.969 23.8655H23.0305ZM11.676 10.9258H20.324C20.7385 10.9258 21.074 11.2613 21.0745 11.6758V20.3243C21.0745 20.7383 20.7385 21.0743 20.3245 21.0743H11.676C11.2615 21.0743 10.926 20.7383 10.926 20.3243V11.6758C10.926 11.2613 11.2615 10.9258 11.676 10.9258ZM12.426 19.5738H19.574L19.5745 12.4258H12.426V19.5738Z" fill="#7734C1"/>
</svg>
