<svg width="34" height="34" viewBox="0 0 34 34" fill="none" xmlns="http://www.w3.org/2000/svg">
<path fill-rule="evenodd" clip-rule="evenodd" d="M6.7056 27.0896C6.55035 27.0905 6.39558 27.0722 6.2448 27.0352C5.97243 26.9711 5.71709 26.849 5.49619 26.6773C5.2753 26.5055 5.09404 26.2882 4.9648 26.04L1.32 19.0352C1.11115 18.6316 1.00145 18.184 1 17.7296V1.32C1 1.23513 1.03371 1.15374 1.09373 1.09373C1.15374 1.03371 1.23513 1 1.32 1H6.7952C6.88007 1 6.96146 1.03371 7.02147 1.09373C7.08149 1.15374 7.1152 1.23513 7.1152 1.32V3.69795C12.4285 0.797842 17.7982 0.246266 23.133 2.04323C23.1544 2.04376 23.1758 2.0464 23.1968 2.05113C23.2388 2.06058 23.2786 2.07822 23.3138 2.10304L23.3191 2.10688C24.5098 2.52021 25.6987 3.05057 26.8848 3.69795V1.32C26.8848 1.23513 26.9185 1.15374 26.9785 1.09373C27.0385 1.03371 27.1199 1 27.2048 1H32.68C32.7649 1 32.8462 1.03371 32.9063 1.09373C32.9663 1.15374 33 1.23513 33 1.32V17.7296C32.9985 18.184 32.8888 18.6316 32.68 19.0352L29.0256 26.04C28.8963 26.2882 28.7151 26.5055 28.4942 26.6773C28.2733 26.849 28.018 26.9711 27.7456 27.0352C27.5979 27.0714 27.4464 27.0897 27.2944 27.0896C27.0082 27.0902 26.726 27.0278 26.4676 26.9075C25.5105 28.4772 24.2335 29.8294 22.7184 30.8752C21.0393 32.0396 19.0433 32.6607 17 32.6544C14.9655 32.6546 12.9794 32.0339 11.3072 30.8752C9.79135 29.8258 8.51534 28.4686 7.56162 26.8936C7.29538 27.023 7.00265 27.0903 6.7056 27.0896ZM25.6207 26.1462C25.709 26.2928 25.8158 26.4266 25.9381 26.5443C25.0222 28.0483 23.8015 29.345 22.3536 30.3504C20.7841 31.4344 18.9218 32.015 17.0144 32.015C15.1069 32.015 13.2447 31.4344 11.6752 30.3504C10.2243 29.3376 9.00146 28.0337 8.08406 26.5226C8.19709 26.4102 8.29638 26.2839 8.37931 26.1462C8.55302 25.8578 8.64903 25.5292 8.65798 25.1926C8.66694 24.856 8.58853 24.5229 8.4304 24.2256L6.536 20.6512C6.4624 20.5136 6.3984 20.3728 6.3376 20.2288C6.63721 20.3948 6.97494 20.4797 7.31741 20.4751C7.65988 20.4705 7.99523 20.3767 8.29031 20.2028C8.58539 20.0289 8.82999 19.781 8.99991 19.4837C9.16984 19.1863 9.25921 18.8497 9.2592 18.5072V13.3296C9.25847 13.0689 9.24421 12.8097 9.21681 12.5528C14.3901 9.40358 19.6266 9.39861 24.7848 12.5379C24.7563 12.7997 24.7415 13.0639 24.7408 13.3296V18.5232C24.7408 18.8657 24.8301 19.2023 25.0001 19.4997C25.17 19.797 25.4146 20.0449 25.7097 20.2188C26.0047 20.3927 26.3401 20.4865 26.6826 20.4911C27.025 20.4957 27.3628 20.4108 27.6624 20.2448C27.6016 20.3888 27.5376 20.5296 27.464 20.6672L25.5696 24.2256C25.4115 24.5229 25.333 24.856 25.342 25.1926C25.351 25.5292 25.447 25.8578 25.6207 26.1462ZM22.7267 2.58455C17.5257 0.896924 12.2929 1.51178 7.1152 4.42913V8.0912C8.13929 9.13858 8.82769 10.4538 9.11203 11.8697C11.8118 10.2708 14.5284 9.49479 17.2434 9.54067C20.936 7.91121 22.3933 3.71768 22.7267 2.58455ZM18.4955 9.62011C21.7205 7.66312 23.0117 3.96512 23.3501 2.79792C24.5305 3.22293 25.709 3.76667 26.8848 4.42913V8.0912C25.8644 9.13478 25.1773 10.4442 24.8911 11.8543C22.768 10.6002 20.6332 9.85528 18.4955 9.62011ZM25.4483 12.384C25.4476 12.4055 25.4447 12.4269 25.4396 12.4478C25.4012 12.7395 25.3814 13.0341 25.3808 13.3296V18.5072C25.3835 18.8425 25.513 19.1644 25.7433 19.4082C25.9735 19.652 26.2875 19.7997 26.6221 19.8215C26.9567 19.8434 27.2872 19.7379 27.5473 19.5261C27.8073 19.3144 27.9776 19.0121 28.024 18.68V18.36V14.9072C28.024 14.8223 28.0577 14.7409 28.1177 14.6809C28.1777 14.6209 28.2591 14.5872 28.344 14.5872C28.4288 14.5872 28.5102 14.6209 28.5703 14.6809C28.6303 14.7409 28.664 14.8223 28.664 14.9072V18.5232C28.6673 18.5979 28.6662 18.6727 28.6608 18.7472C28.6033 19.5197 28.3853 20.2717 28.0208 20.9552L26.136 24.5232C26.0557 24.6757 26.0063 24.8426 25.9905 25.0142C25.9747 25.1859 25.9929 25.359 26.044 25.5236C26.0951 25.6882 26.1782 25.8412 26.2884 25.9737C26.3986 26.1062 26.5338 26.2157 26.6864 26.296C26.8389 26.3763 27.0058 26.4257 27.1774 26.4415C27.3491 26.4573 27.5222 26.4391 27.6868 26.388C27.8514 26.3368 28.0043 26.2538 28.1369 26.1436C28.2694 26.0334 28.3789 25.8981 28.4592 25.7456L32.1136 18.7472C32.2745 18.4355 32.359 18.09 32.36 17.7392V1.64H27.5248V4.23425C27.525 4.2405 27.525 4.24676 27.5248 4.253V8.2256C27.5246 8.26794 27.516 8.30982 27.4996 8.34882C27.4831 8.38782 27.459 8.42316 27.4288 8.4528C26.782 9.08994 26.2679 9.84902 25.9164 10.6861C25.6877 11.2308 25.5307 11.8016 25.4483 12.384ZM1.64 1.64V17.7296C1.63949 18.0836 1.72399 18.4326 1.8864 18.7472L5.5408 25.7552C5.62106 25.9077 5.73059 26.043 5.86312 26.1532C5.99565 26.2634 6.14859 26.3464 6.31321 26.3976C6.47783 26.4487 6.6509 26.4669 6.82255 26.4511C6.9942 26.4353 7.16106 26.3859 7.3136 26.3056C7.46614 26.2253 7.60138 26.1158 7.7116 25.9833C7.82182 25.8507 7.90485 25.6978 7.95596 25.5332C8.00707 25.3686 8.02525 25.1955 8.00947 25.0238C7.9937 24.8522 7.94426 24.6853 7.864 24.5328L5.9728 20.952C5.60829 20.2685 5.39031 19.5165 5.3328 18.744C5.32793 18.6651 5.32793 18.5861 5.3328 18.5072V14.9072C5.3328 14.8223 5.36651 14.7409 5.42653 14.6809C5.48654 14.6209 5.56793 14.5872 5.6528 14.5872C5.73767 14.5872 5.81906 14.6209 5.87907 14.6809C5.93909 14.7409 5.9728 14.8223 5.9728 14.9072V18.3504V18.6704C6.01917 19.0025 6.18947 19.3048 6.4495 19.5165C6.70954 19.7283 7.04005 19.8338 7.37468 19.8119C7.70931 19.7901 8.02327 19.6424 8.25352 19.3986C8.48377 19.1548 8.61327 18.8329 8.616 18.4976V13.3296C8.61396 12.4217 8.43191 11.5232 8.08037 10.6861C7.72884 9.84902 7.2148 9.08994 6.568 8.4528C6.53776 8.42316 6.51371 8.38782 6.49723 8.34882C6.48075 8.30982 6.47218 8.26794 6.472 8.2256V4.32318C6.46932 4.31178 6.46727 4.30023 6.46585 4.28856C6.46131 4.25119 6.46341 4.21335 6.472 4.17678V1.64H1.64ZM12.92 25.208C14.2576 26.8624 15.6368 27.7072 17.0192 27.7072C18.4016 27.7072 19.7904 26.8688 21.16 25.2112C21.1853 25.1762 21.2032 25.1365 21.2127 25.0944C21.2222 25.0523 21.2231 25.0087 21.2153 24.9663C21.2076 24.9238 21.1913 24.8834 21.1675 24.8474C21.1437 24.8114 21.1128 24.7806 21.0768 24.7568C21.0109 24.7041 20.9268 24.6796 20.8429 24.6886C20.759 24.6976 20.6821 24.7394 20.6288 24.8048C19.4032 26.3056 18.1808 27.0672 17 27.0672C15.832 27.0672 14.6192 26.3056 13.416 24.8048C13.3904 24.7698 13.3579 24.7405 13.3205 24.7184C13.2832 24.6964 13.2417 24.6822 13.1987 24.6767C13.1557 24.6711 13.112 24.6744 13.0703 24.6863C13.0286 24.6982 12.9898 24.7184 12.9561 24.7458C12.9225 24.7731 12.8947 24.807 12.8746 24.8454C12.8544 24.8838 12.8423 24.9259 12.8389 24.9691C12.8356 25.0124 12.841 25.0558 12.8549 25.0969C12.8689 25.138 12.891 25.1758 12.92 25.208ZM21.8 20.7472C21.2727 20.7275 20.7709 20.5158 20.3888 20.152C20.3556 20.1249 20.3281 20.0914 20.3081 20.0536C20.288 20.0157 20.2758 19.9742 20.2721 19.9315C20.2684 19.8888 20.2734 19.8458 20.2866 19.805C20.2998 19.7643 20.3211 19.7266 20.3492 19.6942C20.3773 19.6618 20.4116 19.6354 20.4501 19.6166C20.4886 19.5977 20.5304 19.5868 20.5732 19.5844C20.616 19.582 20.6588 19.5883 20.6992 19.6028C20.7395 19.6173 20.7765 19.6397 20.808 19.6688C21.4832 20.248 22.1136 20.248 22.7888 19.6688C22.8206 19.6408 22.8577 19.6194 22.8978 19.6058C22.938 19.5923 22.9804 19.5868 23.0227 19.5898C23.065 19.5928 23.1062 19.6041 23.1441 19.6232C23.1819 19.6422 23.2156 19.6686 23.2432 19.7008C23.2705 19.7327 23.2913 19.7697 23.3043 19.8097C23.3173 19.8496 23.3223 19.8918 23.319 19.9337C23.3158 19.9756 23.3043 20.0164 23.2852 20.0539C23.2662 20.0913 23.2399 20.1247 23.208 20.152C22.8267 20.5151 22.3261 20.7267 21.8 20.7472ZM10.792 20.152C11.1732 20.5151 11.6739 20.7268 12.2 20.7472C12.7272 20.7275 13.2291 20.5159 13.6112 20.152C13.6723 20.0956 13.709 20.0176 13.7136 19.9346C13.7183 19.8515 13.6904 19.77 13.6359 19.7072C13.5814 19.6443 13.5045 19.6052 13.4217 19.598C13.3388 19.5909 13.2565 19.6163 13.192 19.6688C12.5168 20.248 11.8864 20.248 11.208 19.6688C11.177 19.6371 11.1398 19.6121 11.0986 19.5955C11.0575 19.579 11.0133 19.5711 10.969 19.5725C10.9247 19.5739 10.8811 19.5845 10.8411 19.6036C10.8011 19.6227 10.7655 19.6499 10.7365 19.6836C10.7076 19.7172 10.6859 19.7564 10.673 19.7989C10.66 19.8413 10.656 19.8859 10.6612 19.93C10.6665 19.974 10.6808 20.0165 10.7033 20.0547C10.7258 20.0929 10.756 20.1261 10.792 20.152Z" fill="#7734C1"/>
<path d="M6.2448 27.0352L6.364 26.5496L6.35932 26.5485L6.2448 27.0352ZM6.7056 27.0896L6.7067 26.5896L6.70276 26.5896L6.7056 27.0896ZM5.49619 26.6773L5.8031 26.2826H5.80309L5.49619 26.6773ZM4.9648 26.04L4.52125 26.2708L4.52134 26.271L4.9648 26.04ZM1.32 19.0352L0.87593 19.265L0.876451 19.266L1.32 19.0352ZM1 17.7296H0.499997L0.500003 17.7312L1 17.7296ZM1.09373 1.09373L0.740172 0.740172L1.09373 1.09373ZM7.02147 1.09373L6.66792 1.44728L6.66792 1.44728L7.02147 1.09373ZM7.1152 3.69795H6.6152V4.54049L7.35475 4.13683L7.1152 3.69795ZM23.133 2.04323L22.9734 2.51707L23.045 2.54118L23.1205 2.54307L23.133 2.04323ZM23.1968 2.05112L23.3066 1.56332V1.56332L23.1968 2.05112ZM23.3138 2.10304L23.606 1.69727L23.6018 1.69437L23.3138 2.10304ZM23.3191 2.10688L23.0269 2.51263L23.0862 2.55529L23.1551 2.57923L23.3191 2.10688ZM26.8848 3.69795L26.6452 4.13683L27.3848 4.5405V3.69795H26.8848ZM26.9785 1.09373L26.625 0.740169L26.625 0.740175L26.9785 1.09373ZM32.9063 1.09373L33.2598 0.740175L33.2598 0.740169L32.9063 1.09373ZM33 17.7296L33.5 17.7312V17.7296H33ZM32.68 19.0352L33.1233 19.2665L33.1241 19.265L32.68 19.0352ZM29.0256 26.04L28.5823 25.8087L28.5821 25.809L29.0256 26.04ZM28.4942 26.6773L28.1873 26.2826H28.1873L28.4942 26.6773ZM27.7456 27.0352L27.6311 26.5485L27.6264 26.5496L27.7456 27.0352ZM27.2944 27.0896L27.2947 26.5896L27.2933 26.5896L27.2944 27.0896ZM26.4676 26.9075L26.6786 26.4542L26.2734 26.2656L26.0407 26.6472L26.4676 26.9075ZM22.7184 30.8752L22.4344 30.4637L22.4334 30.4643L22.7184 30.8752ZM17 32.6544L17.0015 32.1544H16.9999L17 32.6544ZM11.3072 30.8752L11.592 30.4642L11.5918 30.4641L11.3072 30.8752ZM7.56162 26.8936L7.98932 26.6346L7.75316 26.2446L7.34309 26.4439L7.56162 26.8936ZM25.9381 26.5443L26.3651 26.8044L26.5735 26.4622L26.285 26.1842L25.9381 26.5443ZM25.6207 26.1462L26.049 25.8882V25.8882L25.6207 26.1462ZM22.3536 30.3504L22.6377 30.7618L22.6388 30.7611L22.3536 30.3504ZM11.6752 30.3504L11.389 30.7604L11.391 30.7618L11.6752 30.3504ZM8.08406 26.5226L7.73149 26.1681L7.45238 26.4457L7.65666 26.7821L8.08406 26.5226ZM8.37931 26.1462L8.80763 26.4041L8.37931 26.1462ZM8.65798 25.1926L8.15816 25.1793V25.1793L8.65798 25.1926ZM8.4304 24.2256L7.98861 24.4597L7.98897 24.4604L8.4304 24.2256ZM6.536 20.6512L6.97779 20.4171L6.97689 20.4154L6.536 20.6512ZM6.3376 20.2288L6.57988 19.7914L5.31416 19.0903L5.87698 20.4233L6.3376 20.2288ZM7.31741 20.4751L7.32407 20.975H7.32407L7.31741 20.4751ZM8.29031 20.2028L8.03648 19.772L8.03647 19.772L8.29031 20.2028ZM9.2592 18.5072H8.7592V18.5072L9.2592 18.5072ZM9.2592 13.3296H9.7592L9.7592 13.3282L9.2592 13.3296ZM9.21681 12.5528L8.95683 12.1257L8.68601 12.2906L8.71963 12.6058L9.21681 12.5528ZM24.7848 12.5379L25.2818 12.5919L25.3162 12.276L25.0447 12.1108L24.7848 12.5379ZM24.7408 13.3296L24.2408 13.3282V13.3296H24.7408ZM24.7408 18.5232L25.2408 18.5232V18.5232H24.7408ZM25.0001 19.4997L25.4342 19.2516L25.0001 19.4997ZM25.7097 20.2188L25.4558 20.6496H25.4558L25.7097 20.2188ZM26.6826 20.4911L26.6892 19.9911H26.6892L26.6826 20.4911ZM27.6624 20.2448L28.123 20.4393L28.6858 19.1063L27.4201 19.8074L27.6624 20.2448ZM27.464 20.6672L27.0231 20.4314L27.0226 20.4322L27.464 20.6672ZM25.5696 24.2256L25.1282 23.9906L25.1281 23.9908L25.5696 24.2256ZM25.342 25.1926L25.8418 25.1793V25.1793L25.342 25.1926ZM7.1152 4.42913L6.86976 3.99352L6.6152 4.13695V4.42913H7.1152ZM22.7267 2.58455L23.2063 2.72566L23.3436 2.25907L22.881 2.10896L22.7267 2.58455ZM7.1152 8.0912H6.6152V8.29502L6.7577 8.44076L7.1152 8.0912ZM9.11203 11.8697L8.62181 11.9681L8.76054 12.659L9.36682 12.2999L9.11203 11.8697ZM17.2434 9.54067L17.2349 10.0406L17.3448 10.0425L17.4452 9.99811L17.2434 9.54067ZM23.3501 2.79792L23.5194 2.32749L23.0182 2.147L22.8698 2.65872L23.3501 2.79792ZM18.4955 9.62011L18.2361 9.19266L16.9779 9.95618L18.4408 10.1171L18.4955 9.62011ZM26.8848 4.42913H27.3848V4.13695L27.1302 3.99352L26.8848 4.42913ZM26.8848 8.0912L27.2423 8.44076L27.3848 8.29502V8.0912H26.8848ZM24.8911 11.8543L24.6368 12.2848L25.2414 12.6419L25.3811 11.9538L24.8911 11.8543ZM25.4396 12.4478L24.9535 12.3307L24.9474 12.3564L24.9439 12.3825L25.4396 12.4478ZM25.4483 12.384L24.9533 12.314L24.9496 12.3401L24.9487 12.3665L25.4483 12.384ZM25.3808 13.3296L24.8808 13.3285V13.3296H25.3808ZM25.3808 18.5072H24.8808L24.8808 18.5113L25.3808 18.5072ZM25.7433 19.4082L25.3798 19.7515H25.3798L25.7433 19.4082ZM26.6221 19.8215L26.6547 19.3226H26.6547L26.6221 19.8215ZM28.024 18.68L28.5192 18.7491L28.524 18.7147V18.68H28.024ZM28.1177 14.6809L28.4713 15.0345L28.4713 15.0345L28.1177 14.6809ZM28.5703 14.6809L28.9238 14.3274L28.9238 14.3274L28.5703 14.6809ZM28.664 18.5232H28.164V18.5342L28.1645 18.5452L28.664 18.5232ZM28.6608 18.7472L29.1594 18.7843L29.1595 18.7835L28.6608 18.7472ZM28.0208 20.9552L27.5796 20.7199L27.5787 20.7217L28.0208 20.9552ZM26.136 24.5232L25.6939 24.2897L25.6935 24.2904L26.136 24.5232ZM25.9905 25.0142L25.4926 24.9685L25.4926 24.9685L25.9905 25.0142ZM26.6864 26.296L26.9192 25.8535L26.9192 25.8535L26.6864 26.296ZM27.1774 26.4415L27.1317 26.9394L27.1317 26.9394L27.1774 26.4415ZM28.4592 25.7456L28.9017 25.9784L28.9024 25.977L28.4592 25.7456ZM32.1136 18.7472L32.5568 18.9786L32.5579 18.9766L32.1136 18.7472ZM32.36 17.7392L32.86 17.7406V17.7392H32.36ZM32.36 1.64H32.86V1.14H32.36V1.64ZM27.5248 1.64V1.14H27.0248V1.64H27.5248ZM27.5248 4.23425H27.0248V4.24157L27.025 4.24889L27.5248 4.23425ZM27.5248 4.253L27.025 4.23833L27.0248 4.24566V4.253H27.5248ZM27.5248 8.2256L28.0248 8.22767V8.2256H27.5248ZM27.4996 8.34882L27.9601 8.54344L27.9601 8.54342L27.4996 8.34882ZM27.4288 8.4528L27.0788 8.09572L27.0779 8.0966L27.4288 8.4528ZM25.9164 10.6861L25.4554 10.4925V10.4925L25.9164 10.6861ZM1.64 17.7296L2.14 17.7303V17.7296H1.64ZM1.64 1.64V1.14H1.14V1.64H1.64ZM1.8864 18.7472L1.44211 18.9766L1.44306 18.9784L1.8864 18.7472ZM5.5408 25.7552L5.09745 25.9864L5.09831 25.988L5.5408 25.7552ZM5.86312 26.1532L6.18282 25.7688H6.18282L5.86312 26.1532ZM6.31321 26.3976L6.46146 25.92L6.46146 25.92L6.31321 26.3976ZM6.82255 26.4511L6.86832 26.949L6.86832 26.949L6.82255 26.4511ZM7.3136 26.3056L7.08078 25.8631L7.08077 25.8631L7.3136 26.3056ZM8.00947 25.0238L7.51157 25.0696V25.0696L8.00947 25.0238ZM7.864 24.5328L8.30649 24.3L8.30613 24.2993L7.864 24.5328ZM5.9728 20.952L6.41493 20.7185L6.41398 20.7167L5.9728 20.952ZM5.3328 18.744L4.83371 18.7748L4.83418 18.7811L5.3328 18.744ZM5.3328 18.5072L5.83185 18.538L5.8328 18.5226V18.5072H5.3328ZM5.42653 14.6809L5.78008 15.0345L5.78008 15.0345L5.42653 14.6809ZM5.87907 14.6809L5.52552 15.0345L5.52552 15.0345L5.87907 14.6809ZM5.9728 18.6704H5.4728V18.7051L5.4776 18.7395L5.9728 18.6704ZM6.4495 19.5165L6.13378 19.9043L6.4495 19.5165ZM7.37468 19.8119L7.34206 19.313H7.34206L7.37468 19.8119ZM8.25352 19.3986L8.61703 19.7419H8.61703L8.25352 19.3986ZM8.616 18.4976L9.116 18.5017V18.4976H8.616ZM8.616 13.3296H9.116L9.116 13.3285L8.616 13.3296ZM6.568 8.4528L6.91889 8.0966L6.918 8.09573L6.568 8.4528ZM6.472 8.2256H5.972L5.972 8.22767L6.472 8.2256ZM6.472 4.32318H6.972V4.26522L6.95874 4.2088L6.472 4.32318ZM6.46585 4.28856L5.9695 4.34886L5.9695 4.34886L6.46585 4.28856ZM6.472 4.17678L6.95874 4.29116L6.972 4.23473V4.17678H6.472ZM6.472 1.64H6.972V1.14H6.472V1.64ZM12.92 25.208L13.3088 24.8937L13.3006 24.8835L13.2918 24.8737L12.92 25.208ZM21.16 25.2112L21.5455 25.5297L21.5559 25.5171L21.5654 25.5039L21.16 25.2112ZM21.2127 25.0944L21.7004 25.2045L21.7004 25.2045L21.2127 25.0944ZM21.2153 24.9663L21.7072 24.8762V24.8762L21.2153 24.9663ZM21.1675 24.8474L20.7504 25.1232L20.7504 25.1232L21.1675 24.8474ZM21.0768 24.7568L20.7646 25.1474L20.7824 25.1616L20.8014 25.1741L21.0768 24.7568ZM20.8429 24.6886L20.7897 24.1915H20.7897L20.8429 24.6886ZM20.6288 24.8048L21.0161 25.1211L21.0166 25.1204L20.6288 24.8048ZM13.416 24.8048L13.0128 25.1005L13.0192 25.1092L13.0259 25.1176L13.416 24.8048ZM13.1987 24.6767L13.135 25.1726L13.1351 25.1726L13.1987 24.6767ZM13.0703 24.6863L13.2073 25.1672L13.2073 25.1672L13.0703 24.6863ZM20.3888 20.152L20.7336 19.7899L20.7196 19.7766L20.7047 19.7644L20.3888 20.152ZM21.8 20.7472L21.7814 21.2468L21.8004 21.2475L21.8194 21.2468L21.8 20.7472ZM20.3081 20.0536L20.75 19.8197L20.75 19.8197L20.3081 20.0536ZM20.2721 19.9315L19.774 19.9745L19.774 19.9745L20.2721 19.9315ZM20.2866 19.805L20.7621 19.9595L20.7621 19.9595L20.2866 19.805ZM20.4501 19.6166L20.6702 20.0655L20.6702 20.0655L20.4501 19.6166ZM20.6992 19.6028L20.5301 20.0733L20.5301 20.0733L20.6992 19.6028ZM20.808 19.6688L20.4688 20.0362L20.4755 20.0423L20.4824 20.0483L20.808 19.6688ZM22.7888 19.6688L23.1144 20.0483L23.1191 20.0441L22.7888 19.6688ZM22.8978 19.6058L22.7378 19.1321L22.7378 19.1321L22.8978 19.6058ZM23.0227 19.5898L22.9875 20.0885H22.9875L23.0227 19.5898ZM23.1441 19.6232L23.3689 19.1765L23.3689 19.1765L23.1441 19.6232ZM23.2432 19.7008L23.6232 19.3758L23.6229 19.3754L23.2432 19.7008ZM23.3043 19.8097L22.8289 19.9645L22.8289 19.9645L23.3043 19.8097ZM23.319 19.9337L23.8175 19.9726L23.8175 19.9725L23.319 19.9337ZM23.208 20.152L22.883 19.772L22.8728 19.7807L22.8631 19.7899L23.208 20.152ZM12.2 20.7472L12.1806 21.2468L12.1996 21.2476L12.2186 21.2468L12.2 20.7472ZM10.792 20.152L11.1368 19.7899L11.112 19.7663L11.0842 19.7463L10.792 20.152ZM13.6112 20.152L13.272 19.7846L13.2664 19.7899L13.6112 20.152ZM13.7136 19.9346L14.2129 19.9623L13.7136 19.9346ZM13.6359 19.7072L14.0135 19.3795L14.0135 19.3795L13.6359 19.7072ZM13.4217 19.598L13.3786 20.0962L13.3786 20.0962L13.4217 19.598ZM13.192 19.6688L12.876 19.2811L12.8664 19.2893L13.192 19.6688ZM11.208 19.6688L10.8502 20.0181L10.8661 20.0343L10.8833 20.0491L11.208 19.6688ZM11.0986 19.5955L11.2855 19.1318L11.2855 19.1318L11.0986 19.5955ZM10.969 19.5725L10.9534 19.0727L10.969 19.5725ZM10.673 19.7989L10.1948 19.6528L10.1948 19.6528L10.673 19.7989ZM10.6612 19.93L10.1647 19.9888L10.1647 19.9888L10.6612 19.93ZM10.7033 20.0547L11.1341 19.801L11.1341 19.801L10.7033 20.0547ZM6.12561 27.5208C6.31632 27.5676 6.51207 27.5907 6.70844 27.5896L6.70276 26.5896C6.58862 26.5903 6.47484 26.5768 6.36399 26.5496L6.12561 27.5208ZM5.18929 27.072C5.46696 27.2879 5.78792 27.4414 6.13028 27.5219L6.35932 26.5485C6.15694 26.5009 5.96722 26.4102 5.8031 26.2826L5.18929 27.072ZM4.52134 26.271C4.68379 26.5829 4.91163 26.8561 5.18929 27.072L5.80309 26.2826C5.63897 26.1549 5.5043 25.9934 5.40827 25.809L4.52134 26.271ZM0.876451 19.266L4.52125 26.2708L5.40835 25.8092L1.76355 18.8044L0.876451 19.266ZM0.500003 17.7312C0.501711 18.2651 0.630578 18.7908 0.875931 19.265L1.76407 18.8054C1.59172 18.4723 1.5012 18.103 1.5 17.728L0.500003 17.7312ZM0.5 1.32V17.7296H1.5V1.32H0.5ZM0.740172 0.740172C0.586393 0.893952 0.5 1.10252 0.5 1.32H1.5C1.5 1.36774 1.48104 1.41352 1.44728 1.44728L0.740172 0.740172ZM1.32 0.5C1.10252 0.5 0.893952 0.586393 0.740172 0.740172L1.44728 1.44728C1.41352 1.48104 1.36774 1.5 1.32 1.5V0.5ZM6.7952 0.5H1.32V1.5H6.7952V0.5ZM7.37503 0.740173C7.22125 0.586393 7.01268 0.5 6.7952 0.5V1.5C6.74746 1.5 6.70168 1.48104 6.66792 1.44728L7.37503 0.740173ZM7.6152 1.32C7.6152 1.10252 7.52881 0.893952 7.37503 0.740172L6.66792 1.44728C6.63416 1.41352 6.6152 1.36774 6.6152 1.32H7.6152ZM7.6152 3.69795V1.32H6.6152V3.69795H7.6152ZM23.2926 1.56939C17.8153 -0.275595 12.3013 0.297648 6.87565 3.25907L7.35475 4.13683C12.5557 1.29803 17.7812 0.768128 22.9734 2.51707L23.2926 1.56939ZM23.3066 1.56332C23.2535 1.55139 23.1996 1.54473 23.1455 1.54338L23.1205 2.54307C23.1093 2.54279 23.0981 2.54141 23.087 2.53893L23.3066 1.56332ZM23.6018 1.69437C23.513 1.63172 23.4126 1.58719 23.3066 1.56332L23.087 2.53893C23.065 2.53397 23.0442 2.52472 23.0257 2.51171L23.6018 1.69437ZM23.6113 1.70113L23.6059 1.69729L23.0216 2.50879L23.0269 2.51263L23.6113 1.70113ZM27.1243 3.25907C25.9157 2.59938 24.7016 2.05751 23.4831 1.63453L23.1551 2.57923C24.318 2.9829 25.4817 3.50175 26.6452 4.13683L27.1243 3.25907ZM26.3848 1.32V3.69795H27.3848V1.32H26.3848ZM26.625 0.740175C26.4712 0.893953 26.3848 1.10252 26.3848 1.32H27.3848C27.3848 1.36774 27.3658 1.41352 27.3321 1.44728L26.625 0.740175ZM27.2048 0.5C26.9873 0.5 26.7787 0.586394 26.625 0.740169L27.3321 1.44728C27.2983 1.48103 27.2525 1.5 27.2048 1.5V0.5ZM32.68 0.5H27.2048V1.5H32.68V0.5ZM33.2598 0.740169C33.106 0.586394 32.8975 0.5 32.68 0.5V1.5C32.6322 1.5 32.5865 1.48103 32.5527 1.44728L33.2598 0.740169ZM33.5 1.32C33.5 1.10252 33.4136 0.893953 33.2598 0.740175L32.5527 1.44728C32.5189 1.41352 32.5 1.36774 32.5 1.32H33.5ZM33.5 17.7296V1.32H32.5V17.7296H33.5ZM33.1241 19.265C33.3694 18.7908 33.4983 18.2651 33.5 17.7312L32.5 17.728C32.4988 18.103 32.4083 18.4723 32.2359 18.8054L33.1241 19.265ZM29.4689 26.2713L33.1233 19.2665L32.2367 18.8039L28.5823 25.8087L29.4689 26.2713ZM28.8011 27.072C29.0788 26.8561 29.3066 26.5829 29.469 26.271L28.5821 25.809C28.4861 25.9934 28.3514 26.1549 28.1873 26.2826L28.8011 27.072ZM27.8601 27.5219C28.2025 27.4414 28.5234 27.2879 28.8011 27.072L28.1873 26.2826C28.0232 26.4102 27.8334 26.5009 27.6311 26.5485L27.8601 27.5219ZM27.2941 27.5896C27.4864 27.5897 27.678 27.5666 27.8647 27.5208L27.6264 26.5496C27.5179 26.5762 27.4065 26.5897 27.2947 26.5896L27.2941 27.5896ZM26.2566 27.3608C26.5812 27.512 26.9358 27.5904 27.2955 27.5896L27.2933 26.5896C27.0805 26.5901 26.8707 26.5437 26.6786 26.4542L26.2566 27.3608ZM23.0024 31.2867C24.5753 30.2011 25.901 28.7974 26.8945 27.1678L26.0407 26.6472C25.1201 28.1571 23.8917 29.4578 22.4344 30.4637L23.0024 31.2867ZM16.9984 33.1544C19.1441 33.161 21.2401 32.5088 23.0033 31.2861L22.4334 30.4643C20.8385 31.5704 18.9425 32.1604 17.0015 32.1544L16.9984 33.1544ZM11.0224 31.2862C12.7783 32.5029 14.8638 33.1546 17 33.1544L16.9999 32.1544C15.0673 32.1546 13.1805 31.5649 11.592 30.4642L11.0224 31.2862ZM7.13392 27.1526C8.12408 28.7878 9.44884 30.1968 11.0226 31.2863L11.5918 30.4641C10.1339 29.4548 8.90661 28.1495 7.98932 26.6346L7.13392 27.1526ZM6.70451 27.5896C7.07777 27.5904 7.4456 27.5059 7.78016 27.3433L7.34309 26.4439C7.14516 26.5401 6.92753 26.5901 6.7067 26.5896L6.70451 27.5896ZM26.285 26.1842C26.1941 26.0967 26.1147 25.9973 26.049 25.8882L25.1924 26.4041C25.3033 26.5884 25.4376 26.7565 25.5912 26.9044L26.285 26.1842ZM22.6388 30.7611C24.144 29.7159 25.413 28.3679 26.3651 26.8044L25.5111 26.2843C24.6314 27.7287 23.459 28.9741 22.0684 29.9397L22.6388 30.7611ZM17.0144 32.515C19.0233 32.515 20.9847 31.9035 22.6377 30.7618L22.0694 29.939C20.5835 30.9653 18.8203 31.515 17.0144 31.515V32.515ZM11.391 30.7618C13.0441 31.9035 15.0054 32.515 17.0144 32.515V31.515C15.2085 31.515 13.4453 30.9653 11.9593 29.939L11.391 30.7618ZM7.65666 26.7821C8.61014 28.3526 9.88106 29.7078 11.389 30.7604L11.9614 29.9404C10.5676 28.9674 9.39279 27.7148 8.51145 26.2631L7.65666 26.7821ZM7.95098 25.8882C7.88933 25.9906 7.81552 26.0845 7.73149 26.1681L8.43663 26.8772C8.57867 26.7359 8.70343 26.5772 8.80763 26.4041L7.95098 25.8882ZM8.15816 25.1793C8.1515 25.4296 8.08012 25.6738 7.95098 25.8882L8.80763 26.4041C9.02591 26.0417 9.14655 25.6289 9.1578 25.2059L8.15816 25.1793ZM7.98897 24.4604C8.10652 24.6814 8.16482 24.9291 8.15816 25.1793L9.1578 25.2059C9.16906 24.783 9.07053 24.3643 8.87183 23.9908L7.98897 24.4604ZM6.09421 20.8853L7.98861 24.4597L8.87219 23.9915L6.97779 20.4171L6.09421 20.8853ZM5.87698 20.4233C5.94105 20.575 6.01166 20.731 6.09511 20.887L6.97689 20.4154C6.91314 20.2962 6.85575 20.1706 6.79823 20.0343L5.87698 20.4233ZM7.31075 19.9751C7.05529 19.9785 6.80336 19.9152 6.57988 19.7914L6.09532 20.6662C6.47105 20.8743 6.89459 20.9808 7.32407 20.975L7.31075 19.9751ZM8.03647 19.772C7.81636 19.9017 7.56621 19.9717 7.31075 19.9751L7.32407 20.975C7.75355 20.9693 8.1741 20.8516 8.54415 20.6336L8.03647 19.772ZM8.56579 19.2356C8.43904 19.4574 8.25659 19.6423 8.03648 19.772L8.54415 20.6336C8.9142 20.4155 9.22094 20.1046 9.43404 19.7317L8.56579 19.2356ZM8.7592 18.5072C8.75921 18.7627 8.69254 19.0138 8.56579 19.2356L9.43404 19.7317C9.64713 19.3588 9.75922 18.9367 9.7592 18.5072L8.7592 18.5072ZM8.7592 13.3296V18.5072H9.7592V13.3296H8.7592ZM8.71963 12.6058C8.74521 12.8456 8.75852 13.0877 8.7592 13.331L9.7592 13.3282C9.75842 13.0502 9.74321 12.7738 9.71399 12.4998L8.71963 12.6058ZM25.0447 12.1108C22.3997 10.501 19.712 9.68457 17.006 9.68716C14.3 9.68974 11.6089 10.5113 8.95683 12.1257L9.4768 12.9799C11.998 11.4451 14.5118 10.6895 17.0069 10.6872C19.502 10.6848 22.0117 11.4355 24.5248 12.965L25.0447 12.1108ZM25.2408 13.331C25.2415 13.0829 25.2553 12.8363 25.2818 12.5919L24.2877 12.4839C24.2574 12.7631 24.2416 13.0449 24.2408 13.3282L25.2408 13.331ZM25.2408 18.5232V13.3296H24.2408V18.5232H25.2408ZM25.4342 19.2516C25.3074 19.0298 25.2408 18.7787 25.2408 18.5232L24.2408 18.5232C24.2408 18.9527 24.3528 19.3748 24.5659 19.7477L25.4342 19.2516ZM25.9635 19.788C25.7434 19.6583 25.5609 19.4734 25.4342 19.2516L24.5659 19.7477C24.779 20.1206 25.0858 20.4315 25.4558 20.6496L25.9635 19.788ZM26.6892 19.9911C26.4338 19.9877 26.1836 19.9177 25.9635 19.788L25.4558 20.6496C25.8259 20.8676 26.2464 20.9853 26.6759 20.991L26.6892 19.9911ZM27.4201 19.8074C27.1966 19.9312 26.9447 19.9945 26.6892 19.9911L26.6759 20.991C27.1054 20.9968 27.5289 20.8903 27.9047 20.6822L27.4201 19.8074ZM27.9049 20.903C27.9883 20.747 28.0589 20.591 28.123 20.4393L27.2018 20.0503C27.1442 20.1866 27.0868 20.3122 27.0231 20.4314L27.9049 20.903ZM26.0109 24.4606L27.9053 20.9022L27.0226 20.4322L25.1282 23.9906L26.0109 24.4606ZM25.8418 25.1793C25.8352 24.9291 25.8935 24.6814 26.011 24.4604L25.1281 23.9908C24.9294 24.3643 24.8309 24.783 24.8422 25.2059L25.8418 25.1793ZM26.049 25.8882C25.9199 25.6738 25.8485 25.4296 25.8418 25.1793L24.8422 25.2059C24.8534 25.6289 24.9741 26.0417 25.1924 26.4041L26.049 25.8882ZM7.36064 4.86474C12.4281 2.00954 17.5164 1.41958 22.5723 3.06014L22.881 2.10896C17.535 0.374271 12.1578 1.01402 6.86976 3.99352L7.36064 4.86474ZM7.6152 8.0912V4.42913H6.6152V8.0912H7.6152ZM9.60224 11.7712C9.29902 10.2612 8.56487 8.85864 7.47271 7.74164L6.7577 8.44076C7.71371 9.41851 8.35637 10.6463 8.62181 11.9681L9.60224 11.7712ZM17.2518 9.04074C14.4311 8.99308 11.6244 9.80066 8.85724 11.4395L9.36682 12.2999C11.9993 10.7408 14.6258 9.99651 17.2349 10.0406L17.2518 9.04074ZM22.247 2.44344C22.0876 2.98512 21.6556 4.27038 20.8203 5.61226C19.984 6.95568 18.7643 8.32303 17.0415 9.08323L17.4452 9.99811C19.4151 9.12885 20.7704 7.58471 21.6692 6.14072C22.5691 4.69518 23.0323 3.31712 23.2063 2.72566L22.247 2.44344ZM22.8698 2.65872C22.5376 3.80502 21.2899 7.33953 18.2361 9.19266L18.7549 10.0476C22.151 7.9867 23.4859 4.12522 23.8303 2.93713L22.8698 2.65872ZM27.1302 3.99352C25.9319 3.31834 24.728 2.76262 23.5194 2.32749L23.1807 3.26836C24.333 3.68324 25.4862 4.215 26.6393 4.86475L27.1302 3.99352ZM27.3848 8.0912V4.42913H26.3848V8.0912H27.3848ZM25.3811 11.9538C25.6483 10.6374 26.2897 9.41497 27.2423 8.44076L26.5273 7.74164C25.4391 8.8546 24.7063 10.2511 24.4011 11.7548L25.3811 11.9538ZM18.4408 10.1171C20.4985 10.3435 22.566 11.0616 24.6368 12.2848L25.1454 11.4238C22.97 10.1388 20.7678 9.36707 18.5502 9.12311L18.4408 10.1171ZM25.9257 12.5649C25.9386 12.5114 25.9461 12.4566 25.948 12.4015L24.9487 12.3665C24.9491 12.3544 24.9507 12.3424 24.9535 12.3307L25.9257 12.5649ZM25.8808 13.3307C25.8814 13.0567 25.8997 12.7836 25.9353 12.5131L24.9439 12.3825C24.9027 12.6955 24.8815 13.0114 24.8808 13.3285L25.8808 13.3307ZM25.8808 18.5072V13.3296H24.8808V18.5072H25.8808ZM26.1068 19.0649C25.9632 18.9129 25.8825 18.7122 25.8808 18.5031L24.8808 18.5113C24.8846 18.9729 25.0628 19.4159 25.3798 19.7515L26.1068 19.0649ZM26.6547 19.3226C26.4461 19.309 26.2503 19.2169 26.1068 19.0649L25.3798 19.7515C25.6967 20.0871 26.1289 20.2904 26.5895 20.3205L26.6547 19.3226ZM27.2316 19.1384C27.0694 19.2705 26.8634 19.3363 26.6547 19.3226L26.5895 20.3205C27.0501 20.3506 27.5051 20.2053 27.863 19.9139L27.2316 19.1384ZM27.5288 18.6109C27.4999 18.8179 27.3937 19.0064 27.2316 19.1384L27.863 19.9139C28.2209 19.6224 28.4554 19.2063 28.5192 18.7491L27.5288 18.6109ZM27.524 18.36V18.68H28.524V18.36H27.524ZM27.524 14.9072V18.36H28.524V14.9072H27.524ZM27.7642 14.3274C27.6104 14.4811 27.524 14.6897 27.524 14.9072H28.524C28.524 14.9549 28.505 15.0007 28.4713 15.0345L27.7642 14.3274ZM28.344 14.0872C28.1265 14.0872 27.9179 14.1736 27.7642 14.3274L28.4713 15.0345C28.4375 15.0682 28.3917 15.0872 28.344 15.0872V14.0872ZM28.9238 14.3274C28.77 14.1736 28.5615 14.0872 28.344 14.0872V15.0872C28.2962 15.0872 28.2505 15.0682 28.2167 15.0345L28.9238 14.3274ZM29.164 14.9072C29.164 14.6897 29.0776 14.4812 28.9238 14.3274L28.2167 15.0345C28.1829 15.0007 28.164 14.9549 28.164 14.9072H29.164ZM29.164 18.5232V14.9072H28.164V18.5232H29.164ZM29.1595 18.7835C29.1663 18.6895 29.1676 18.5953 29.1635 18.5012L28.1645 18.5452C28.1669 18.6005 28.1661 18.6558 28.1621 18.7109L29.1595 18.7835ZM28.462 21.1905C28.8592 20.4456 29.0967 19.6261 29.1594 18.7843L28.1622 18.7101C28.1098 19.4132 27.9114 20.0978 27.5796 20.7199L28.462 21.1905ZM26.5781 24.7567L28.4629 21.1887L27.5787 20.7217L25.6939 24.2897L26.5781 24.7567ZM26.4884 25.06C26.4982 24.9538 26.5288 24.8505 26.5785 24.756L25.6935 24.2904C25.5827 24.501 25.5144 24.7314 25.4926 24.9685L26.4884 25.06ZM26.5215 25.3753C26.4899 25.2734 26.4786 25.1663 26.4884 25.06L25.4926 24.9685C25.4708 25.2055 25.4959 25.4445 25.5665 25.6718L26.5215 25.3753ZM26.6728 25.654C26.6046 25.5719 26.5532 25.4772 26.5215 25.3753L25.5665 25.6718C25.6371 25.8992 25.7518 26.1104 25.9039 26.2934L26.6728 25.654ZM26.9192 25.8535C26.8248 25.8038 26.741 25.736 26.6728 25.654L25.9039 26.2934C26.0561 26.4764 26.2429 26.6276 26.4536 26.7385L26.9192 25.8535ZM27.2232 25.9436C27.1169 25.9338 27.0136 25.9032 26.9192 25.8535L26.4536 26.7385C26.6642 26.8493 26.8946 26.9176 27.1317 26.9394L27.2232 25.9436ZM27.5385 25.9104C27.4366 25.9421 27.3295 25.9533 27.2232 25.9436L27.1317 26.9394C27.3687 26.9612 27.6077 26.9361 27.835 26.8655L27.5385 25.9104ZM27.8172 25.7592C27.7351 25.8274 27.6404 25.8788 27.5385 25.9104L27.835 26.8655C28.0624 26.7949 28.2736 26.6802 28.4566 26.528L27.8172 25.7592ZM28.0167 25.5128C27.967 25.6072 27.8992 25.6909 27.8172 25.7592L28.4566 26.528C28.6396 26.3758 28.7908 26.1891 28.9017 25.9784L28.0167 25.5128ZM31.6704 18.5158L28.016 25.5142L28.9024 25.977L32.5568 18.9786L31.6704 18.5158ZM31.86 17.7378C31.8592 18.0092 31.7938 18.2766 31.6693 18.5178L32.5579 18.9766C32.7552 18.5944 32.8587 18.1708 32.86 17.7406L31.86 17.7378ZM31.86 1.64V17.7392H32.86V1.64H31.86ZM27.5248 2.14H32.36V1.14H27.5248V2.14ZM28.0248 4.23425V1.64H27.0248V4.23425H28.0248ZM28.0246 4.26766C28.025 4.25164 28.025 4.23562 28.0246 4.21962L27.025 4.24889C27.0249 4.24539 27.0249 4.24187 27.025 4.23833L28.0246 4.26766ZM28.0248 8.2256V4.253H27.0248V8.2256H28.0248ZM27.9601 8.54342C28.0024 8.44348 28.0243 8.33616 28.0248 8.22767L27.0248 8.22353C27.0249 8.19971 27.0297 8.17616 27.039 8.15423L27.9601 8.54342ZM27.7788 8.80988C27.8563 8.73394 27.9179 8.64337 27.9601 8.54344L27.039 8.15421C27.0483 8.13227 27.0618 8.11239 27.0788 8.09572L27.7788 8.80988ZM26.3774 10.8797C26.7033 10.1036 27.18 9.39975 27.7797 8.809L27.0779 8.0966C26.384 8.78013 25.8325 9.59447 25.4554 10.4925L26.3774 10.8797ZM25.9434 12.454C26.0197 11.9139 26.1653 11.3848 26.3774 10.8797L25.4554 10.4925C25.21 11.0769 25.0416 11.6892 24.9533 12.314L25.9434 12.454ZM2.14 17.7296V1.64H1.14V17.7296H2.14ZM2.33068 18.5178C2.205 18.2744 2.1396 18.0043 2.14 17.7303L1.14 17.7289C1.13937 18.163 1.24298 18.5909 1.44212 18.9766L2.33068 18.5178ZM5.98414 25.524L2.32974 18.516L1.44306 18.9784L5.09746 25.9864L5.98414 25.524ZM6.18282 25.7688C6.10078 25.7005 6.03298 25.6168 5.98329 25.5224L5.09831 25.988C5.20915 26.1987 5.3604 26.3854 5.54341 26.5376L6.18282 25.7688ZM6.46146 25.92C6.35955 25.8884 6.26487 25.837 6.18282 25.7688L5.54341 26.5376C5.72643 26.6898 5.93763 26.8045 6.16496 26.8751L6.46146 25.92ZM6.77678 25.9532C6.67052 25.9629 6.56337 25.9517 6.46146 25.92L6.16496 26.8751C6.39228 26.9457 6.63129 26.9708 6.86832 26.949L6.77678 25.9532ZM7.08077 25.8631C6.98634 25.9128 6.88305 25.9434 6.77678 25.9532L6.86832 26.949C7.10535 26.9272 7.33577 26.8589 7.54643 26.7481L7.08077 25.8631ZM7.32717 25.6636C7.25893 25.7456 7.17521 25.8134 7.08078 25.8631L7.54642 26.7481C7.75708 26.6372 7.94383 26.486 8.09603 26.303L7.32717 25.6636ZM7.47844 25.3849C7.4468 25.4868 7.3954 25.5815 7.32717 25.6636L8.09603 26.303C8.24823 26.12 8.3629 25.9088 8.43347 25.6814L7.47844 25.3849ZM7.51157 25.0696C7.52134 25.1759 7.51008 25.283 7.47844 25.3849L8.43347 25.6814C8.50405 25.4541 8.52916 25.2151 8.50738 24.9781L7.51157 25.0696ZM7.42152 24.7656C7.4712 24.8601 7.50181 24.9634 7.51157 25.0696L8.50738 24.9781C8.48559 24.741 8.41733 24.5106 8.30649 24.3L7.42152 24.7656ZM5.53068 21.1855L7.42188 24.7663L8.30613 24.2993L6.41493 20.7185L5.53068 21.1855ZM4.83418 18.7811C4.89685 19.6229 5.13439 20.4424 5.53162 21.1873L6.41398 20.7167C6.08218 20.0946 5.88377 19.41 5.83142 18.7069L4.83418 18.7811ZM4.83375 18.4764C4.82761 18.5758 4.82761 18.6754 4.83375 18.7748L5.83185 18.7132C5.82825 18.6548 5.82825 18.5964 5.83185 18.538L4.83375 18.4764ZM4.8328 14.9072V18.5072H5.8328V14.9072H4.8328ZM5.07297 14.3274C4.91919 14.4812 4.8328 14.6897 4.8328 14.9072H5.8328C5.8328 14.9549 5.81384 15.0007 5.78008 15.0345L5.07297 14.3274ZM5.6528 14.0872C5.43532 14.0872 5.22675 14.1736 5.07297 14.3274L5.78008 15.0345C5.74632 15.0682 5.70054 15.0872 5.6528 15.0872V14.0872ZM6.23263 14.3274C6.07885 14.1736 5.87028 14.0872 5.6528 14.0872V15.0872C5.60506 15.0872 5.55928 15.0682 5.52552 15.0345L6.23263 14.3274ZM6.4728 14.9072C6.4728 14.6897 6.38641 14.4812 6.23263 14.3274L5.52552 15.0345C5.49176 15.0007 5.4728 14.9549 5.4728 14.9072H6.4728ZM6.4728 18.3504V14.9072H5.4728V18.3504H6.4728ZM6.4728 18.6704V18.3504H5.4728V18.6704H6.4728ZM6.76522 19.1288C6.60309 18.9968 6.49691 18.8083 6.468 18.6013L5.4776 18.7395C5.54143 19.1967 5.77585 19.6128 6.13378 19.9043L6.76522 19.1288ZM7.34206 19.313C7.13342 19.3267 6.92735 19.2609 6.76522 19.1288L6.13378 19.9043C6.49172 20.1957 6.94668 20.341 7.4073 20.3109L7.34206 19.313ZM7.89001 19.0553C7.74645 19.2073 7.5507 19.2994 7.34206 19.313L7.40729 20.3109C7.86791 20.2808 8.30009 20.0775 8.61703 19.7419L7.89001 19.0553ZM8.11602 18.4935C8.11431 18.7026 8.03357 18.9033 7.89001 19.0553L8.61703 19.7419C8.93397 19.4063 9.11222 18.9633 9.11598 18.5017L8.11602 18.4935ZM8.116 13.3296V18.4976H9.116V13.3296H8.116ZM7.61937 10.8797C7.94531 11.6558 8.11411 12.4889 8.116 13.3307L9.116 13.3285C9.11381 12.3545 8.9185 11.3906 8.54137 10.4925L7.61937 10.8797ZM6.21712 8.809C6.81682 9.39975 7.29343 10.1036 7.61937 10.8797L8.54137 10.4925C8.16424 9.59447 7.61278 8.78013 6.91888 8.0966L6.21712 8.809ZM6.03666 8.54343C6.07888 8.64337 6.14052 8.73393 6.218 8.80988L6.918 8.09573C6.935 8.1124 6.94853 8.13228 6.9578 8.15421L6.03666 8.54343ZM5.972 8.22767C5.97245 8.33616 5.99443 8.44349 6.03666 8.54343L6.9578 8.15421C6.96707 8.17615 6.9719 8.19971 6.972 8.22353L5.972 8.22767ZM5.972 4.32318V8.2256H6.972V4.32318H5.972ZM5.9695 4.34886C5.97313 4.37874 5.9784 4.40835 5.98526 4.43756L6.95874 4.2088C6.96025 4.21522 6.96141 4.22172 6.9622 4.22827L5.9695 4.34886ZM5.98526 4.0624C5.96324 4.15611 5.95786 4.25308 5.9695 4.34886L6.9622 4.22827C6.96476 4.2493 6.96358 4.27058 6.95874 4.29116L5.98526 4.0624ZM5.972 1.64V4.17678H6.972V1.64H5.972ZM1.64 2.14H6.472V1.14H1.64V2.14ZM17.0192 27.2072C15.8553 27.2072 14.6042 26.4958 13.3088 24.8937L12.5312 25.5224C13.911 27.229 15.4183 28.2072 17.0192 28.2072V27.2072ZM20.7746 24.8927C19.4467 26.4998 18.1853 27.2072 17.0192 27.2072V28.2072C18.6179 28.2072 20.1341 27.2378 21.5455 25.5297L20.7746 24.8927ZM20.725 24.9843C20.7303 24.9606 20.7404 24.9382 20.7546 24.9185L21.5654 25.5039C21.6301 25.4142 21.6761 25.3124 21.7004 25.2045L20.725 24.9843ZM20.7235 25.0563C20.7191 25.0325 20.7196 25.0079 20.725 24.9843L21.7004 25.2045C21.7248 25.0967 21.7271 24.985 21.7072 24.8762L20.7235 25.0563ZM20.7504 25.1232C20.737 25.1029 20.7279 25.0802 20.7235 25.0563L21.7072 24.8762C21.6872 24.7675 21.6455 24.6638 21.5845 24.5716L20.7504 25.1232ZM20.8014 25.1741C20.7812 25.1608 20.7638 25.1434 20.7504 25.1232L21.5845 24.5716C21.5235 24.4793 21.4445 24.4004 21.3522 24.3395L20.8014 25.1741ZM20.8962 25.1858C20.849 25.1908 20.8017 25.177 20.7646 25.1474L21.389 24.3662C21.2201 24.2312 21.0047 24.1684 20.7897 24.1915L20.8962 25.1858ZM21.0166 25.1204C20.9867 25.1572 20.9434 25.1807 20.8962 25.1858L20.7897 24.1915C20.5747 24.2145 20.3775 24.3215 20.241 24.4892L21.0166 25.1204ZM17 27.5672C18.405 27.5672 19.7552 26.665 21.0161 25.1211L20.2415 24.4886C19.0512 25.9462 17.9566 26.5672 17 26.5672V27.5672ZM13.0259 25.1176C14.2646 26.6626 15.6056 27.5672 17 27.5672V26.5672C16.0584 26.5672 14.9739 25.9486 13.8061 24.4921L13.0259 25.1176ZM13.0665 25.1491C13.0455 25.1367 13.0272 25.1202 13.0128 25.1005L13.8192 24.5091C13.7535 24.4195 13.6702 24.3442 13.5745 24.2877L13.0665 25.1491ZM13.1351 25.1726C13.1108 25.1695 13.0875 25.1615 13.0665 25.1491L13.5745 24.2877C13.4788 24.2313 13.3726 24.1949 13.2624 24.1807L13.1351 25.1726ZM13.2073 25.1672C13.1838 25.1739 13.1592 25.1757 13.135 25.1726L13.2624 24.1807C13.1522 24.1666 13.0403 24.175 12.9334 24.2054L13.2073 25.1672ZM13.2715 25.1337C13.2526 25.1491 13.2307 25.1605 13.2073 25.1672L12.9334 24.2054C12.8265 24.2358 12.7269 24.2877 12.6407 24.3578L13.2715 25.1337ZM13.3174 25.0777C13.306 25.0993 13.2904 25.1183 13.2715 25.1337L12.6407 24.3578C12.5545 24.4279 12.4834 24.5148 12.4318 24.6132L13.3174 25.0777ZM13.3374 25.0081C13.3355 25.0324 13.3287 25.0561 13.3174 25.0777L12.4318 24.6132C12.3802 24.7116 12.3491 24.8194 12.3405 24.9302L13.3374 25.0081ZM13.3284 24.9362C13.3363 24.9593 13.3393 24.9838 13.3374 25.0081L12.3405 24.9302C12.3318 25.041 12.3458 25.1524 12.3815 25.2576L13.3284 24.9362ZM13.2918 24.8737C13.3081 24.8918 13.3206 24.9131 13.3284 24.9362L12.3815 25.2576C12.4172 25.3628 12.4739 25.4597 12.5482 25.5423L13.2918 24.8737ZM20.044 20.514C20.5144 20.962 21.1322 21.2226 21.7814 21.2468L21.8186 20.2475C21.4132 20.2324 21.0274 20.0696 20.7336 19.7899L20.044 20.514ZM19.8661 20.2874C19.9175 20.3844 19.9878 20.4702 20.0729 20.5396L20.7047 19.7644C20.7233 19.7796 20.7388 19.7984 20.75 19.8197L19.8661 20.2874ZM19.774 19.9745C19.7834 20.0839 19.8148 20.1903 19.8661 20.2874L20.75 19.8197C20.7613 19.841 20.7682 19.8644 20.7703 19.8884L19.774 19.9745ZM19.8111 19.6505C19.7771 19.7549 19.7645 19.8651 19.774 19.9745L20.7703 19.8884C20.7723 19.9124 20.7696 19.9366 20.7621 19.9595L19.8111 19.6505ZM19.9715 19.3666C19.8996 19.4495 19.845 19.546 19.8111 19.6505L20.7621 19.9595C20.7547 19.9825 20.7427 20.0037 20.7269 20.0219L19.9715 19.3666ZM20.23 19.1676C20.1314 19.216 20.0435 19.2836 19.9715 19.3666L20.7269 20.0219C20.7111 20.0401 20.6918 20.0549 20.6702 20.0655L20.23 19.1676ZM20.5455 19.0852C20.4359 19.0912 20.3286 19.1193 20.23 19.1676L20.6702 20.0655C20.6485 20.0761 20.625 20.0823 20.6009 20.0836L20.5455 19.0852ZM20.8683 19.1322C20.7649 19.0951 20.6552 19.0791 20.5455 19.0852L20.6009 20.0836C20.5768 20.085 20.5527 20.0814 20.5301 20.0733L20.8683 19.1322ZM21.1471 19.3014C21.0664 19.2269 20.9716 19.1694 20.8682 19.1322L20.5301 20.0733C20.5074 20.0651 20.4866 20.0525 20.4688 20.0362L21.1471 19.3014ZM22.4632 19.2893C22.1814 19.531 21.9663 19.6032 21.7984 19.6032C21.6305 19.6032 21.4154 19.531 21.1335 19.2893L20.4824 20.0483C20.8758 20.3857 21.3135 20.6032 21.7984 20.6032C22.2833 20.6032 22.721 20.3857 23.1143 20.0483L22.4632 19.2893ZM22.7378 19.1321C22.6349 19.1668 22.54 19.2217 22.4585 19.2934L23.1191 20.0441C23.1012 20.0599 23.0804 20.0719 23.0578 20.0795L22.7378 19.1321ZM23.0578 19.091C22.9495 19.0834 22.8407 19.0974 22.7378 19.1321L23.0578 20.0795C23.0352 20.0872 23.0113 20.0902 22.9875 20.0885L23.0578 19.091ZM23.3689 19.1765C23.2719 19.1277 23.1661 19.0986 23.0578 19.091L22.9875 20.0885C22.9638 20.0869 22.9406 20.0805 22.9193 20.0698L23.3689 19.1765ZM23.6229 19.3754C23.5522 19.293 23.4659 19.2254 23.3689 19.1765L22.9193 20.0698C22.898 20.0591 22.879 20.0442 22.8635 20.0261L23.6229 19.3754ZM23.7797 19.6548C23.7463 19.5524 23.6932 19.4576 23.6232 19.3758L22.8632 20.0258C22.8479 20.0078 22.8362 19.987 22.8289 19.9645L23.7797 19.6548ZM23.8175 19.9725C23.8259 19.8652 23.813 19.7572 23.7797 19.6548L22.8289 19.9645C22.8215 19.942 22.8187 19.9183 22.8206 19.8948L23.8175 19.9725ZM23.7309 20.2806C23.7797 20.1846 23.8091 20.0799 23.8175 19.9726L22.8206 19.8948C22.8224 19.8712 22.8289 19.8482 22.8396 19.8272L23.7309 20.2806ZM23.533 20.532C23.6148 20.462 23.6821 20.3765 23.7309 20.2806L22.8396 19.8272C22.8503 19.8061 22.8651 19.7873 22.883 19.772L23.533 20.532ZM21.8194 21.2468C22.4671 21.2216 23.0835 20.9611 23.5528 20.514L22.8631 19.7899C22.57 20.0691 22.1851 20.2318 21.7806 20.2475L21.8194 21.2468ZM12.2194 20.2476C11.8149 20.2319 11.43 20.0692 11.1368 19.7899L10.4471 20.514C10.9165 20.9611 11.5328 21.2217 12.1806 21.2468L12.2194 20.2476ZM13.2664 19.7899C12.9726 20.0697 12.5867 20.2324 12.1814 20.2475L12.2186 21.2468C12.8677 21.2226 13.4856 20.962 13.956 20.5141L13.2664 19.7899ZM13.2144 19.9069C13.217 19.8602 13.2377 19.8163 13.272 19.7846L13.9503 20.5194C14.1069 20.3749 14.2011 20.175 14.2129 19.9623L13.2144 19.9069ZM13.2582 20.0348C13.2275 19.9995 13.2118 19.9536 13.2144 19.9069L14.2129 19.9623C14.2247 19.7495 14.1532 19.5405 14.0135 19.3795L13.2582 20.0348ZM13.3786 20.0962C13.332 20.0922 13.2888 20.0701 13.2582 20.0348L14.0135 19.3795C13.8739 19.2185 13.6771 19.1183 13.4647 19.0999L13.3786 20.0962ZM13.5078 20.0564C13.4716 20.0859 13.4252 20.1002 13.3786 20.0962L13.4648 19.0999C13.2524 19.0816 13.0413 19.1466 12.8761 19.2812L13.5078 20.0564ZM10.8833 20.0491C11.278 20.386 11.7162 20.6032 12.2012 20.6032C12.6864 20.6032 13.1241 20.3858 13.5175 20.0483L12.8664 19.2893C12.5847 19.531 12.3695 19.6032 12.2012 19.6032C12.0326 19.6032 11.8164 19.5308 11.5326 19.2885L10.8833 20.0491ZM10.9118 20.0593C10.8886 20.05 10.8677 20.0359 10.8502 20.0181L11.5657 19.3195C11.4864 19.2382 11.3909 19.1742 11.2855 19.1318L10.9118 20.0593ZM10.9847 20.0723C10.9597 20.073 10.9349 20.0686 10.9118 20.0593L11.2855 19.1318C11.1801 19.0893 11.067 19.0692 10.9534 19.0727L10.9847 20.0723ZM11.0566 20.0548C11.0341 20.0655 11.0096 20.0715 10.9847 20.0723L10.9534 19.0727C10.8397 19.0763 10.7281 19.1034 10.6256 19.1524L11.0566 20.0548ZM11.1154 20.0098C11.0992 20.0287 11.0791 20.044 11.0566 20.0548L10.6256 19.1524C10.523 19.2014 10.4318 19.2712 10.3576 19.3573L11.1154 20.0098ZM11.1512 19.9449C11.1439 19.9688 11.1317 19.9909 11.1154 20.0098L10.3576 19.3573C10.2834 19.4435 10.228 19.5441 10.1948 19.6528L11.1512 19.9449ZM11.1578 19.8712C11.1607 19.896 11.1585 19.9211 11.1512 19.9449L10.1948 19.6528C10.1616 19.7615 10.1513 19.8759 10.1647 19.9888L11.1578 19.8712ZM11.1341 19.801C11.1468 19.8225 11.1548 19.8464 11.1578 19.8712L10.1647 19.9888C10.1781 20.1017 10.2148 20.2105 10.2724 20.3085L11.1341 19.801ZM11.0842 19.7463C11.1045 19.7609 11.1215 19.7795 11.1341 19.801L10.2724 20.3084C10.3301 20.4064 10.4075 20.4913 10.4997 20.5577L11.0842 19.7463Z" fill="#7734C1"/>
</svg>
