<svg width="34" height="32" viewBox="0 0 34 32" fill="none" xmlns="http://www.w3.org/2000/svg">
<path d="M11.7148 10.4243C10.6798 10.4243 9.83984 9.5843 9.83984 8.5493V6.7793C9.83984 5.7443 10.6798 4.9043 11.7148 4.9043C12.7498 4.9043 13.5898 5.7443 13.5898 6.7793V8.5493C13.5898 9.5843 12.7498 10.4243 11.7148 10.4243ZM11.7148 5.8693C11.2148 5.8693 10.8098 6.2743 10.8098 6.7743V8.5443C10.8098 9.0443 11.2148 9.4493 11.7148 9.4493C12.2148 9.4493 12.6198 9.0443 12.6198 8.5443V6.7743C12.6198 6.2743 12.2148 5.8693 11.7148 5.8693Z" fill="#7734C1" stroke="#7734C1" stroke-width="0.4"/>
<path d="M14.5849 10.5644C13.5049 10.5644 12.6199 9.68439 12.6199 8.59939V6.71939C12.6199 5.63939 13.4999 4.75439 14.5849 4.75439C15.6699 4.75439 16.5499 5.63439 16.5499 6.71939V8.59939C16.5449 9.68439 15.6649 10.5644 14.5849 10.5644ZM14.5849 5.72939C14.0349 5.72939 13.5899 6.17439 13.5899 6.72439V8.60439C13.5899 9.1544 14.0349 9.59939 14.5849 9.59939C15.1349 9.59939 15.5799 9.1544 15.5799 8.60439V6.72439C15.5749 6.17439 15.1299 5.72939 14.5849 5.72939Z" fill="#7734C1" stroke="#7734C1" stroke-width="0.4"/>
<path d="M16.7548 10.3442C16.6598 10.3442 16.5598 10.3142 16.4798 10.2592C15.9948 9.92418 15.6748 9.39918 15.5998 8.81418C15.5848 8.72918 15.5798 8.63418 15.5798 8.53918V6.49918C15.5798 5.34918 16.5148 4.40918 17.6698 4.40918C18.2298 4.40918 18.7548 4.62418 19.1448 5.01918C19.4098 5.28418 19.5998 5.61418 19.6898 5.97418C19.7348 6.13918 19.7548 6.31418 19.7548 6.49418V8.53418C19.7548 8.61418 19.7498 8.69418 19.7398 8.77918C19.7398 8.79418 19.7348 8.80418 19.7348 8.81918C19.6998 9.05418 19.4998 9.23418 19.2548 9.23418H18.0848C17.6798 9.31418 17.3398 9.61418 17.2148 10.0042C17.1698 10.1492 17.0548 10.2692 16.9098 10.3142C16.8598 10.3342 16.8098 10.3442 16.7548 10.3442ZM17.6698 5.38418C17.0548 5.38418 16.5498 5.88418 16.5498 6.50418V8.54418C16.5498 8.58918 16.5498 8.63418 16.5598 8.68418C16.5748 8.80918 16.6098 8.92418 16.6648 9.03418C16.9898 8.63918 17.4548 8.35918 17.9698 8.27418C17.9948 8.26918 18.0198 8.26918 18.0448 8.26918H18.7848V6.50418C18.7848 6.40918 18.7748 6.31918 18.7498 6.22918C18.6998 6.03418 18.5998 5.85918 18.4598 5.71418C18.2498 5.49918 17.9698 5.38418 17.6698 5.38418Z" fill="#7734C1" stroke="#7734C1" stroke-width="0.4"/>
<path d="M20.22 29.0002H11.725C11.455 29.0002 11.24 28.7852 11.24 28.5152V18.1352C10.72 17.6152 10.33 16.9952 10.085 16.2802C9.91496 15.7702 9.82996 15.2102 9.82996 14.5602V11.6152C9.82996 11.3452 10.045 11.1302 10.315 11.1302C10.585 11.1302 10.8 11.3452 10.8 11.6152V14.5602C10.8 15.1002 10.865 15.5602 11 15.9652C11.215 16.5952 11.56 17.1202 12.045 17.5652C12.145 17.6552 12.205 17.7852 12.205 17.9252V28.0302H19.73V19.1102C19.73 18.9852 19.78 18.8652 19.865 18.7752C21.665 16.8802 22.655 14.3552 22.655 11.6702V10.3802C22.655 9.91024 22.365 9.48025 21.93 9.30525C21.845 9.27025 21.765 9.25025 21.68 9.23525C21.415 9.20025 21.23 8.95525 21.265 8.69025C21.3 8.42525 21.545 8.24025 21.81 8.27525C21.97 8.29525 22.13 8.34025 22.285 8.40525C23.095 8.73025 23.62 9.50524 23.62 10.3802V11.6702C23.62 14.5402 22.585 17.2452 20.7 19.3002V28.5202C20.705 28.7852 20.49 29.0002 20.22 29.0002Z" fill="#7734C1" stroke="#7734C1" stroke-width="0.4"/>
<path d="M16.73 16.755C16.46 16.755 16.245 16.54 16.245 16.27V15.31C16.245 14.745 16.345 14.235 16.545 13.8C16.8 13.235 17.185 12.765 17.695 12.39C17.425 12.31 17.175 12.175 16.96 11.995C16.91 11.955 16.86 11.91 16.815 11.865C16.415 11.465 16.195 10.935 16.195 10.365C16.195 10.14 16.23 9.91996 16.3 9.70996C16.535 8.96496 17.195 8.39996 17.975 8.27496C18.24 8.22996 18.49 8.40996 18.53 8.67496C18.57 8.93996 18.39 9.18996 18.13 9.22996C17.71 9.29496 17.35 9.60496 17.225 10.005C17.185 10.12 17.165 10.24 17.165 10.36C17.165 10.665 17.285 10.955 17.5 11.17C17.525 11.195 17.55 11.22 17.575 11.24C17.785 11.41 18.04 11.505 18.31 11.505H19.855C20.105 11.505 20.31 11.69 20.335 11.94C20.36 12.185 20.2 12.415 19.955 12.465C18.655 12.745 17.825 13.31 17.43 14.195C17.29 14.505 17.22 14.88 17.22 15.305V16.265C17.215 16.535 17 16.755 16.73 16.755Z" fill="#7734C1" stroke="#7734C1" stroke-width="0.4"/>
<path d="M5.68998 17.6799C4.57498 17.6799 3.66998 16.7749 3.66998 15.6599V4.70994C3.66998 3.59494 4.57498 2.68994 5.68998 2.68994C6.80498 2.68994 7.70998 3.59494 7.70998 4.70994V15.6599C7.70998 16.7749 6.80498 17.6799 5.68998 17.6799ZM5.68998 3.65494C5.10998 3.65494 4.63498 4.12494 4.63498 4.70994V15.6599C4.63498 16.2399 5.10498 16.7149 5.68998 16.7149C6.27498 16.7149 6.74498 16.2449 6.74498 15.6599V4.70994C6.74498 4.12994 6.26998 3.65494 5.68998 3.65494Z" fill="#7734C1" stroke="#7734C1" stroke-width="0.4"/>
<path d="M2.82 16.7547C1.815 16.7547 1 15.9347 1 14.9347V5.43475C1 4.42975 1.815 3.61475 2.82 3.61475C3.825 3.61475 4.64 4.42975 4.64 5.43475C4.64 5.70475 4.425 5.91975 4.155 5.91975C3.885 5.91975 3.67 5.70475 3.67 5.43475C3.67 4.96475 3.29 4.58475 2.82 4.58475C2.35 4.58475 1.97 4.96475 1.97 5.43475V14.9347C1.97 15.4047 2.35 15.7847 2.82 15.7847C3.29 15.7847 3.67 15.4047 3.67 14.9347C3.67 14.6647 3.885 14.4497 4.155 14.4497C4.425 14.4497 4.64 14.6647 4.64 14.9347C4.64 15.9347 3.82 16.7547 2.82 16.7547Z" fill="#7734C1" stroke="#7734C1" stroke-width="0.4"/>
<path d="M28.31 17.6799C27.195 17.6799 26.29 16.7749 26.29 15.6599V4.70994C26.29 3.59494 27.195 2.68994 28.31 2.68994C29.425 2.68994 30.33 3.59494 30.33 4.70994V15.6599C30.33 16.7749 29.425 17.6799 28.31 17.6799ZM28.31 3.65494C27.73 3.65494 27.26 4.12494 27.26 4.70994V15.6599C27.26 16.2399 27.73 16.7149 28.31 16.7149C28.89 16.7149 29.365 16.2449 29.365 15.6599V4.70994C29.36 4.12994 28.89 3.65494 28.31 3.65494Z" fill="#7734C1" stroke="#7734C1" stroke-width="0.4"/>
<path d="M31.1799 16.7547C30.1749 16.7547 29.3599 15.9397 29.3599 14.9347C29.3599 14.6647 29.5749 14.4497 29.8449 14.4497C30.1149 14.4497 30.3299 14.6647 30.3299 14.9347C30.3299 15.4047 30.7099 15.7847 31.1799 15.7847C31.6499 15.7847 32.0299 15.4047 32.0299 14.9347V5.43475C32.0299 4.96475 31.6499 4.58475 31.1799 4.58475C30.7099 4.58475 30.3299 4.96475 30.3299 5.43475C30.3299 5.70475 30.1149 5.91975 29.8449 5.91975C29.5749 5.91975 29.3599 5.70475 29.3599 5.43475C29.3599 4.42975 30.1749 3.61475 31.1799 3.61475C32.1849 3.61475 32.9999 4.42975 32.9999 5.43475V14.9347C32.9999 15.9347 32.1849 16.7547 31.1799 16.7547Z" fill="#7734C1" stroke="#7734C1" stroke-width="0.4"/>
<path d="M10.34 9.23514H7.23C6.96 9.23514 6.745 9.02014 6.745 8.75014C6.745 8.48014 6.96 8.26514 7.23 8.26514H10.34C10.61 8.26514 10.825 8.48014 10.825 8.75014C10.825 9.02014 10.605 9.23514 10.34 9.23514Z" fill="#7734C1" stroke="#7734C1" stroke-width="0.4"/>
<path d="M16.0801 9.23514H16.0501C15.7801 9.23514 15.5651 9.02014 15.5651 8.75014C15.5651 8.48014 15.7801 8.26514 16.0501 8.26514C16.3201 8.26514 16.5501 8.48014 16.5501 8.75014C16.5501 9.02014 16.3501 9.23514 16.0801 9.23514Z" fill="#7734C1" stroke="#7734C1" stroke-width="0.4"/>
<path d="M26.7751 9.23514H18.0501C17.7801 9.23514 17.5651 9.02014 17.5651 8.75014C17.5651 8.48014 17.7801 8.26514 18.0501 8.26514H26.7751C27.0451 8.26514 27.2601 8.48014 27.2601 8.75014C27.2601 9.02014 27.0401 9.23514 26.7751 9.23514Z" fill="#7734C1" stroke="#7734C1" stroke-width="0.4"/>
<path d="M13.115 9.23514H13.09C12.82 9.23514 12.605 9.02014 12.605 8.75014C12.605 8.48014 12.82 8.26514 13.09 8.26514C13.36 8.26514 13.585 8.48014 13.585 8.75014C13.585 9.02014 13.38 9.23514 13.115 9.23514Z" fill="#7734C1" stroke="#7734C1" stroke-width="0.4"/>
<path d="M26.775 12.0999H23.145C22.875 12.0999 22.66 11.8849 22.66 11.6149C22.66 11.3449 22.875 11.1299 23.145 11.1299H26.775C27.045 11.1299 27.26 11.3449 27.26 11.6149C27.26 11.8849 27.04 12.0999 26.775 12.0999Z" fill="#7734C1" stroke="#7734C1" stroke-width="0.4"/>
<path d="M17.265 12.0999H7.22499C6.95499 12.0999 6.73999 11.8849 6.73999 11.6149C6.73999 11.3449 6.95499 11.1299 7.22499 11.1299H17.265C17.535 11.1299 17.75 11.3449 17.75 11.6149C17.75 11.8849 17.535 12.0999 17.265 12.0999Z" fill="#7734C1" stroke="#7734C1" stroke-width="0.4"/>
<path d="M22.11 9.23484C21.84 9.23484 21.625 9.01984 21.625 8.74984V6.71484C21.625 6.43984 21.52 6.18484 21.325 5.98984C21.13 5.79484 20.87 5.68484 20.595 5.68484C20.19 5.68484 19.825 5.92484 19.66 6.29484C19.55 6.53984 19.265 6.64984 19.02 6.53984C18.775 6.42984 18.665 6.14484 18.775 5.89984C19.095 5.17984 19.81 4.71484 20.595 4.71484C21.13 4.71484 21.63 4.92484 22.01 5.29984C22.385 5.67484 22.595 6.17484 22.595 6.70984V8.74484C22.595 9.01984 22.38 9.23484 22.11 9.23484Z" fill="#7734C1" stroke="#7734C1" stroke-width="0.4"/>
</svg>
