<svg width="34" height="32" viewBox="0 0 34 32" fill="none" xmlns="http://www.w3.org/2000/svg">
<path d="M13.3681 16.198H15.3552V18.1851C15.3552 19.202 16.1825 20.0294 17.1994 20.0294C18.2163 20.0294 19.0437 19.202 19.0437 18.1851V16.198H21.0308C22.0477 16.198 22.8751 15.3707 22.8751 14.3538C22.8751 13.3363 22.0477 12.509 21.0308 12.509H19.0437V10.5219C19.0437 9.50498 18.2163 8.67761 17.1994 8.67761C16.1825 8.67761 15.3552 9.50498 15.3552 10.5219V12.509H13.3681C12.3512 12.509 11.5238 13.3363 11.5238 14.3538C11.5238 15.3707 12.3512 16.198 13.3681 16.198ZM13.3681 13.5828H15.8921C16.1885 13.5828 16.429 13.3422 16.429 13.0459V10.5219C16.429 10.0966 16.7748 9.75142 17.1994 9.75142C17.6241 9.75142 17.9699 10.0972 17.9699 10.5219V13.0459C17.9699 13.3422 18.2104 13.5828 18.5068 13.5828H21.0308C21.456 13.5828 21.8012 13.9285 21.8012 14.3538C21.8012 14.779 21.4555 15.1242 21.0308 15.1242H18.5068C18.2104 15.1242 17.9699 15.3647 17.9699 15.6611V18.1851C17.9699 18.6103 17.6241 18.9556 17.1994 18.9556C16.7748 18.9556 16.429 18.6098 16.429 18.1851V15.6611C16.429 15.3647 16.1885 15.1242 15.8921 15.1242H13.3681C12.9429 15.1242 12.5976 14.7784 12.5976 14.3538C12.5976 13.9291 12.9429 13.5828 13.3681 13.5828Z" fill="#7734C1" stroke="#7734C1"/>
<path d="M16.8199 30.8641C16.9246 30.9688 17.062 31.0214 17.1995 31.0214C17.3369 31.0214 17.4744 30.9688 17.5791 30.8641L30.3928 18.0503C34.135 14.3081 34.135 8.21963 30.3928 4.47741C26.7746 0.85922 20.9626 0.739491 17.1995 4.11823C13.4363 0.740565 7.62432 0.859757 4.00613 4.47741C0.263908 8.21963 0.263908 14.3081 4.00613 18.0503L16.8199 30.8641ZM4.76531 5.2366C6.42756 3.57488 8.60954 2.74429 10.7926 2.74429C12.9751 2.74429 15.1582 3.57542 16.8199 5.2366C17.0298 5.44653 17.3691 5.44653 17.5791 5.2366C20.9025 1.9137 26.3102 1.9137 29.6336 5.2366C32.9571 8.56003 32.9571 13.9677 29.6336 17.2912L17.1995 29.7253L4.76531 17.2912C1.44187 13.9677 1.44187 8.56003 4.76531 5.2366Z" fill="#7734C1" stroke="#7734C1"/>
</svg>
