<svg width="32" height="32" viewBox="0 0 32 32" fill="none" xmlns="http://www.w3.org/2000/svg">
<path d="M28.9101 8.52386H12.9989L11.3651 4.97225H11.6848C12.0755 4.97225 12.3951 4.65261 12.3951 4.26193V0.710322C12.3951 0.319645 12.0755 0 11.6848 0H3.16093C2.77026 0 2.45061 0.319645 2.45061 0.710322V4.26193C2.45061 4.65261 2.77026 4.97225 3.16093 4.97225H3.48058L0.0355161 12.5017C0.0355161 12.5372 0.0355161 12.5372 0 12.5727C0 12.6082 0 12.6082 0 12.6437C0 12.6792 0 12.6792 0 12.7148C0 12.7503 0 12.7858 0 12.7858V29.1232C0 29.5139 0.319645 29.8335 0.710322 29.8335H12.8568C13.5316 31.1121 14.8812 31.9645 16.4084 31.9645H17.1543C17.7225 31.9645 18.2908 31.8579 18.8235 31.6093C19.3563 31.8224 19.889 31.9645 20.4928 31.9645H21.2386C22.8013 31.9645 24.1509 31.1121 24.7902 29.8335H28.9811C29.3718 29.8335 29.6915 29.5139 29.6915 29.1232V14.4906C31.0056 14.1709 32 12.9634 32 11.5427C31.929 9.87347 30.5794 8.52386 28.9101 8.52386ZM3.87125 1.42064H10.9745V3.55161H3.87125V1.42064ZM13.4606 22.5882C12.7858 23.2986 12.3951 24.222 12.3951 25.2164V28.0577C12.3951 28.1643 12.3951 28.3063 12.3951 28.4129H1.38513V16.7991L3.16093 15.9467L3.23196 15.9112C4.04883 15.5205 4.93674 15.3785 5.82464 15.5205C6.28635 15.5916 6.71254 15.6981 7.13874 15.9112C8.77248 16.6926 10.6193 16.6926 12.2531 15.9112L13.4961 15.3074V22.5882H13.4606ZM13.4606 13.7447L11.6848 14.5971L11.6138 14.6326C10.7969 15.0233 9.90899 15.1654 9.02109 15.0233C8.55938 14.9523 8.13319 14.8457 7.70699 14.6326C6.07325 13.8513 4.22642 13.8513 2.59267 14.6326L1.38513 15.2009V12.9279L1.45616 12.7858L5.04329 4.97225H9.80244L13.3896 12.7858L13.4606 12.9279V13.7447ZM23.7603 28.0577C23.7603 29.4428 22.5882 30.5438 21.1676 30.5438H20.4218C19.96 30.5438 19.4983 30.4373 19.1077 30.1887C19.0011 30.1176 18.8946 30.1176 18.7525 30.1176C18.6104 30.1176 18.5039 30.1532 18.3973 30.1887C18.0067 30.4018 17.545 30.5438 17.0832 30.5438H16.3374C14.9168 30.5438 13.7447 29.4428 13.7447 28.0577V25.2164C13.7447 23.8313 14.9168 22.7303 16.3374 22.7303H17.0832C17.4029 22.7303 17.7225 22.8013 18.0422 22.9079V23.7958C18.0422 24.1865 18.3618 24.5061 18.7525 24.5061C19.1432 24.5061 19.4628 24.1865 19.4628 23.7958V22.9079C19.7469 22.8013 20.0666 22.7303 20.4218 22.7303H21.1676C22.5882 22.7303 23.7603 23.8313 23.7603 25.2164V28.0577ZM28.9101 13.141C28.5194 13.141 28.1998 13.4606 28.1998 13.8513V28.4129H25.1809C25.1809 28.3063 25.1809 28.1643 25.1809 28.0577V25.2164C25.1809 23.0499 23.3696 21.3097 21.1676 21.3097H20.4218C20.1021 21.3097 19.7825 21.3452 19.4628 21.4162V20.5993C19.4628 19.818 20.1021 19.1787 20.8835 19.1787C21.2741 19.1787 21.5938 18.859 21.5938 18.4684C21.5938 18.0777 21.2741 17.758 20.8835 17.758C19.3208 17.758 18.0422 19.0366 18.0422 20.5993V21.4162C17.7225 21.3452 17.4029 21.3097 17.0832 21.3097H16.3374C15.8047 21.3097 15.2719 21.4162 14.8102 21.5938V12.7858C14.8102 12.7503 14.8102 12.7503 14.8102 12.7148C14.8102 12.6792 14.8102 12.6792 14.8102 12.6437C14.8102 12.6082 14.8102 12.6082 14.8102 12.5727C14.8102 12.5372 14.8102 12.5372 14.7747 12.5017L13.6382 9.94451H28.9101C29.798 9.94451 30.5083 10.6548 30.5083 11.5427C30.5083 12.4306 29.798 13.141 28.9101 13.141ZM7.42286 18.4684C5.64706 18.4684 4.22642 19.889 4.22642 21.6648C4.22642 23.4406 5.64706 24.8613 7.42286 24.8613C9.19867 24.8613 10.6193 23.4406 10.6193 21.6648C10.6193 19.889 9.19867 18.4684 7.42286 18.4684ZM7.42286 23.4406C6.42841 23.4406 5.64706 22.6593 5.64706 21.6648C5.64706 20.6704 6.42841 19.889 7.42286 19.889C8.41731 19.889 9.19867 20.6704 9.19867 21.6648C9.19867 22.6593 8.41731 23.4406 7.42286 23.4406Z" fill="#7734C1"/>
</svg>
