<svg width="32" height="29" viewBox="0 0 32 29" fill="none" xmlns="http://www.w3.org/2000/svg">
<path fill-rule="evenodd" clip-rule="evenodd" d="M8.77164 8.89924C8.67368 7.54578 8.63743 6.19036 8.76968 5.30939C9.00804 3.71919 10.4849 2.61846 12.0738 2.84018C12.3896 1.6539 13.555 0.868597 14.7974 1.05504C14.9825 1.0828 15.1595 1.13047 15.3267 1.19676L15.328 1.1948C16.2338 -0.0819283 18.0059 -0.382988 19.2826 0.522803C20.5593 1.42859 20.8604 3.20066 19.9546 4.47739L19.9533 4.47902C20.0708 4.61486 20.1747 4.76637 20.2619 4.93192C20.8483 6.04277 20.4921 7.40244 19.4769 8.09239C20.2109 9.519 19.6601 11.2764 18.2377 12.0267C17.5079 12.4117 16.3461 12.7954 15.138 13.1314C15.1909 13.3097 15.2333 13.4919 15.2647 13.677C15.312 13.9565 15.3339 14.2373 15.3306 14.5168C16.287 14.1613 17.3394 14.1257 18.3262 14.4261C18.3908 14.4457 18.4552 14.4669 18.5185 14.4891C19.0361 13.2349 19.6101 12.0065 20.1224 11.2777C21.0472 9.9621 22.8604 9.63851 24.1825 10.5476C24.9955 9.62806 26.3892 9.44716 27.4168 10.1694C27.5699 10.2772 27.707 10.3993 27.8269 10.5332L27.8288 10.5319C29.21 9.79524 30.9295 10.3187 31.6662 11.7002C32.4028 13.0814 31.8794 14.8009 30.4979 15.5376L30.4959 15.5386C30.5403 15.7126 30.5655 15.8945 30.5697 16.0816C30.5968 17.3374 29.6701 18.394 28.4535 18.5567C28.4718 20.1612 27.1928 21.4863 25.5853 21.5212C24.7601 21.5392 23.5497 21.3622 22.3187 21.1225C22.286 21.3054 22.2426 21.4873 22.1877 21.6672C21.8259 22.8554 21.0073 23.8513 19.9112 24.4355L18.1345 25.3831C14.3827 27.3837 10.1705 28.3613 5.92104 28.2177H5.92039C5.00154 28.1866 4.16921 27.6678 3.73656 26.8567C3.72448 26.8338 3.71273 26.8113 3.7013 26.7881C3.68334 26.7966 3.66538 26.8048 3.6471 26.8133C2.81151 27.1966 1.83453 27.1052 1.0845 26.5729C0.334788 26.041 -0.0743527 25.1496 0.0111979 24.234C0.0111979 24.234 0.0111978 24.2337 0.0115244 24.2337C0.407604 20.0002 1.9116 15.9457 4.37199 12.478C4.77199 11.9141 5.16807 11.356 5.53704 10.8359C6.25573 9.823 7.34732 9.13696 8.5718 8.92863C8.63841 8.91753 8.70503 8.90773 8.77164 8.89924ZM19.3352 23.292C20.1185 22.8655 20.7033 22.1481 20.9632 21.2943C21.2261 20.4309 21.135 19.4984 20.7105 18.702C20.4646 18.2412 20.2112 17.7658 19.9654 17.3051C19.5406 16.5087 18.817 15.9134 17.9536 15.6506C17.0903 15.3877 16.1577 15.4788 15.3613 15.9033C14.7987 16.2034 14.1946 16.5257 13.5847 16.8509C12.9721 17.1774 12.3762 17.531 11.7979 17.9101L13.7277 21.5287C13.8939 21.8402 13.7757 22.2281 13.4642 22.3944C13.1523 22.5606 12.7644 22.4427 12.5982 22.1308L10.7403 18.6471C8.42454 20.3598 6.44349 22.4995 4.90978 24.9612C4.90946 24.9612 4.90946 24.9612 4.90946 24.9615C4.66521 25.3537 4.64856 25.8464 4.86603 26.2542C5.0835 26.6621 5.50178 26.923 5.96382 26.9387C7.43711 26.9883 8.90584 26.8959 10.3491 26.6657L8.96429 24.0688C8.79809 23.757 8.91629 23.369 9.2278 23.2028C9.53963 23.0366 9.92755 23.1548 10.0938 23.4663L11.6666 26.4162C13.7029 25.9682 15.6771 25.243 17.5324 24.2536L18.206 23.8944L16.2322 20.1929C16.066 19.8814 16.1842 19.4935 16.4957 19.3273C16.8075 19.1611 17.1954 19.2789 17.3616 19.5908L19.3352 23.292ZM13.9713 15.1941C14.0647 14.7699 14.0771 14.3281 14.0026 13.8915C13.8514 13.0018 13.3532 12.2086 12.6168 11.6862C12.191 11.3841 11.7515 11.0723 11.3254 10.7703C10.5894 10.2478 9.67612 10.0395 8.78633 10.1907C7.89654 10.3418 7.10308 10.8405 6.58096 11.5765C6.21198 12.0966 5.8159 12.6547 5.4159 13.2186C5.01427 13.7848 4.63942 14.3676 4.29199 14.9655L7.6363 17.3381C7.92462 17.5425 7.99254 17.9425 7.78813 18.2305C7.58373 18.5185 7.18373 18.5864 6.89573 18.382L3.67583 16.0976C2.37069 18.6654 1.55601 21.4654 1.28564 24.3529V24.3535C1.24254 24.8136 1.44825 25.2616 1.82539 25.529C2.20221 25.7965 2.69298 25.8425 3.11322 25.6498C3.22196 25.5999 3.33036 25.5493 3.43812 25.4977C3.46228 25.0745 3.59126 24.6569 3.82309 24.2846C3.82309 24.2846 3.82309 24.2843 3.82342 24.2843C4.26097 23.5819 4.7328 22.9044 5.23664 22.2546L4.51272 21.741C4.22472 21.5366 4.15681 21.1369 4.36121 20.8486C4.56562 20.5606 4.96529 20.4926 5.25329 20.6971L6.04937 21.2616C7.61736 19.4458 9.44918 17.8703 11.4861 16.5893L9.27874 15.0233C8.99074 14.8189 8.92282 14.4189 9.12723 14.1309C9.33163 13.8429 9.73131 13.775 10.0193 13.9794L12.6949 15.8775C12.7899 15.8249 12.8859 15.773 12.9826 15.7214L13.9713 15.1941ZM22.3673 19.8367C23.5663 20.078 24.7536 20.2589 25.5575 20.2415C26.4692 20.2216 27.1934 19.4654 27.1735 18.5537C27.1588 17.8791 26.7408 17.307 26.1554 17.0631C26.9123 17.2078 27.6411 17.31 28.1508 17.2989C28.7934 17.2852 29.3038 16.7519 29.2897 16.1093C29.2763 15.4902 28.7813 14.9939 28.1707 14.9707C28.8574 14.8143 29.4863 14.6266 29.8958 14.4081C30.6536 14.0039 30.941 13.0602 30.5367 12.3023C30.1325 11.5445 29.1888 11.2571 28.431 11.6614C28.0215 11.8798 27.5154 12.2971 27.0027 12.7804C27.3237 12.2605 27.1872 11.5729 26.6808 11.2166C26.1547 10.847 25.4279 10.974 25.0582 11.4997C24.765 11.917 24.4437 12.5789 24.142 13.2881C24.2661 12.6661 24.0238 12.0003 23.472 11.612C22.7258 11.0876 21.694 11.2676 21.1696 12.0137C20.6824 12.7072 20.1404 13.8778 19.6529 15.0729C20.2491 15.4915 20.7454 16.0476 21.0948 16.7026C21.3404 17.1634 21.5941 17.6391 21.84 18.0998C22.1303 18.6438 22.3069 19.2345 22.3673 19.8367ZM14.6064 11.9598C15.7865 11.6391 16.9293 11.2698 17.6405 10.8947C18.447 10.4692 18.7562 9.46871 18.3308 8.66218C18.016 8.06529 17.3861 7.74072 16.7533 7.7848C17.4949 7.5755 18.1923 7.34072 18.6433 7.10268C19.2117 6.80293 19.4299 6.09763 19.1298 5.52914C18.8411 4.98155 18.176 4.75919 17.6196 5.01159C18.1639 4.56425 18.6423 4.11527 18.9107 3.73683C19.4077 3.03609 19.2424 2.06369 18.542 1.56672C17.8413 1.06974 16.8689 1.23496 16.3719 1.93537C16.1035 2.31414 15.8374 2.91365 15.5951 3.57552C15.6496 2.96654 15.2199 2.41242 14.6077 2.32067C13.9719 2.22532 13.3783 2.66418 13.283 3.29993C13.2075 3.80409 13.2163 4.54009 13.264 5.30906C13.0965 4.69715 12.5819 4.20997 11.9145 4.11005C11.0126 3.97486 10.1708 4.59723 10.0356 5.4991C9.90992 6.3373 9.94877 7.62644 10.0474 8.91394C10.768 9.02137 11.4606 9.29663 12.0663 9.72602C12.4921 10.0284 12.9316 10.3402 13.3577 10.6423C13.8606 10.9992 14.2831 11.4481 14.6064 11.9598Z" fill="#7734C1"/>
</svg>
